<svg id="svg" version="1.1" xmlns="http://www.w3.org/2000/svg" xmlns:xlink="http://www.w3.org/1999/xlink" width="400" height="400" viewBox="0, 0, 400,400"><g id="svgg"><path id="path0" d="M208.500 36.610 L 207.600 37.571 207.600 191.186 L 207.600 344.800 201.200 344.800 L 194.800 344.800 194.800 236.747 L 194.800 128.694 193.939 127.947 C 193.465 127.536,192.655 127.200,192.139 127.200 C 191.622 127.200,191.200 127.020,191.200 126.800 C 191.200 126.536,179.467 126.400,156.800 126.400 C 134.133 126.400,122.400 126.536,122.400 126.800 C 122.400 127.020,121.888 127.200,121.261 127.200 C 120.635 127.200,119.735 127.536,119.261 127.947 L 118.400 128.694 118.400 236.747 L 118.400 344.800 113.000 344.800 L 107.600 344.800 107.600 259.400 C 107.600 202.733,107.465 174.000,107.200 174.000 C 106.980 174.000,106.800 173.640,106.800 173.200 C 106.800 172.667,106.533 172.400,106.000 172.400 C 105.560 172.400,105.200 172.220,105.200 172.000 C 105.200 171.736,92.933 171.600,69.200 171.600 C 45.467 171.600,33.200 171.736,33.200 172.000 C 33.200 172.220,32.840 172.400,32.400 172.400 C 31.867 172.400,31.600 172.667,31.600 173.200 C 31.600 173.640,31.420 174.000,31.200 174.000 C 30.935 174.000,30.800 202.733,30.800 259.400 L 30.800 344.800 21.938 344.800 L 13.076 344.800 11.738 345.820 C 9.901 347.221,9.749 350.840,11.455 352.545 L 12.509 353.600 200.393 353.600 C 378.829 353.600,388.307 353.565,388.889 352.900 C 390.831 350.681,390.634 347.648,388.422 345.700 C 387.444 344.840,387.092 344.801,380.300 344.800 L 373.200 344.800 373.200 259.400 C 373.200 202.733,373.065 174.000,372.800 174.000 C 372.580 174.000,372.400 173.640,372.400 173.200 C 372.400 172.667,372.133 172.400,371.600 172.400 C 371.160 172.400,370.800 172.220,370.800 172.000 C 370.800 171.736,358.533 171.600,334.800 171.600 C 311.067 171.600,298.800 171.736,298.800 172.000 C 298.800 172.220,298.440 172.400,298.000 172.400 C 297.467 172.400,297.200 172.667,297.200 173.200 C 297.200 173.640,297.020 174.000,296.800 174.000 C 296.535 174.000,296.400 202.733,296.400 259.400 L 296.400 344.800 290.200 344.800 L 284.000 344.800 284.000 191.400 C 284.000 89.400,283.866 38.000,283.600 38.000 C 283.380 38.000,283.200 37.717,283.200 37.371 C 283.200 35.548,284.278 35.599,245.729 35.624 L 209.400 35.649 208.500 36.610 M275.800 194.400 L 275.800 345.000 245.700 345.103 L 215.600 345.205 215.600 194.669 C 215.600 111.874,215.721 44.012,215.869 43.864 C 216.017 43.716,229.562 43.641,245.969 43.697 L 275.800 43.800 275.800 194.400 M186.800 239.803 L 186.800 345.205 156.700 345.103 L 126.600 345.000 126.498 240.200 C 126.441 182.560,126.481 135.175,126.585 134.900 C 126.735 134.506,133.145 134.400,156.787 134.400 L 186.800 134.400 186.800 239.803 M99.101 262.500 L 99.000 345.400 69.200 345.400 L 39.400 345.400 39.299 262.500 L 39.198 179.600 69.200 179.600 L 99.202 179.600 99.101 262.500 M364.800 262.600 L 364.800 345.600 334.843 345.600 C 307.895 345.600,304.861 345.536,304.643 344.967 C 304.310 344.100,304.334 180.200,304.667 179.867 C 304.813 179.720,318.403 179.600,334.867 179.600 L 364.800 179.600 364.800 262.600 " stroke="none" fill="#ffffff" fill-rule="evenodd"></path><path id="path1" d="M215.869 43.864 C 215.721 44.012,215.600 111.874,215.600 194.669 L 215.600 345.205 245.700 345.103 L 275.800 345.000 275.800 194.400 L 275.800 43.800 245.969 43.697 C 229.562 43.641,216.017 43.716,215.869 43.864 M54.100 179.900 C 62.405 179.960,75.995 179.960,84.300 179.900 C 92.605 179.839,85.810 179.790,69.200 179.790 C 52.590 179.790,45.795 179.839,54.100 179.900 M54.300 345.500 C 62.495 345.560,75.905 345.560,84.100 345.500 C 92.295 345.439,85.590 345.390,69.200 345.390 C 52.810 345.390,46.105 345.439,54.300 345.500 " stroke="none" fill="#04acbc" fill-rule="evenodd"></path><path id="path2" d="M126.585 134.900 C 126.481 135.175,126.441 182.560,126.498 240.200 L 126.600 345.000 156.700 345.103 L 186.800 345.205 186.800 239.803 L 186.800 134.400 156.787 134.400 C 133.145 134.400,126.735 134.506,126.585 134.900 M304.585 180.100 C 304.480 180.375,304.441 217.590,304.498 262.800 L 304.602 345.000 304.701 262.503 L 304.800 180.005 334.900 179.900 L 365.000 179.795 334.887 179.697 C 311.093 179.620,304.735 179.705,304.585 180.100 M319.700 345.500 C 328.005 345.560,341.595 345.560,349.900 345.500 C 358.205 345.439,351.410 345.390,334.800 345.390 C 318.190 345.390,311.395 345.439,319.700 345.500 " stroke="none" fill="#fcbc2c" fill-rule="evenodd"></path><path id="path3" d="M39.200 262.600 L 39.200 345.200 69.200 345.200 L 99.200 345.200 99.200 262.600 L 99.200 180.000 69.200 180.000 L 39.200 180.000 39.200 262.600 " stroke="none" fill="#048c3c" fill-rule="evenodd"></path><path id="path4" d="M304.800 262.600 L 304.800 345.200 334.800 345.200 L 364.800 345.200 364.800 262.600 L 364.800 180.000 334.800 180.000 L 304.800 180.000 304.800 262.600 " stroke="none" fill="#dc0404" fill-rule="evenodd"></path></g></svg>