<svg id="svg" version="1.1" xmlns="http://www.w3.org/2000/svg" xmlns:xlink="http://www.w3.org/1999/xlink" width="400" height="400" viewBox="0, 0, 400,400"><g id="svgg"><path id="path0" d="M264.500 51.018 C 252.700 54.196,246.621 68.813,252.629 79.563 C 253.594 81.289,253.599 81.350,252.878 82.165 C 250.114 85.286,240.748 96.007,239.600 97.363 C 238.314 98.882,220.674 119.046,212.797 128.000 C 208.788 132.557,209.487 132.232,205.996 131.171 C 199.711 129.262,192.806 130.581,187.549 134.695 L 184.682 136.938 162.097 125.647 L 139.511 114.357 139.782 111.828 C 140.354 106.490,138.070 100.088,134.221 96.239 C 119.291 81.308,94.545 96.586,101.394 116.507 L 102.325 119.214 98.430 122.707 C 96.288 124.628,90.860 129.464,86.368 133.454 C 81.875 137.444,74.797 143.744,70.639 147.454 C 66.480 151.164,62.228 154.920,61.189 155.800 C 60.150 156.680,55.299 160.987,50.408 165.372 L 41.516 173.344 40.258 172.818 C 33.442 169.967,27.585 169.576,22.596 171.637 C 5.569 178.669,6.586 203.522,24.119 208.861 C 39.305 213.486,53.468 199.278,48.845 184.057 C 48.380 182.527,48.000 181.101,48.000 180.887 C 48.000 180.584,82.109 149.957,92.200 141.200 C 93.341 140.210,97.445 136.565,101.320 133.100 C 108.810 126.402,108.840 126.385,110.877 127.569 C 117.442 131.385,126.676 130.190,133.346 124.662 L 135.291 123.049 157.804 134.303 L 180.317 145.558 180.277 149.479 C 180.159 160.994,188.644 169.687,200.000 169.687 C 214.670 169.687,224.184 154.610,217.828 141.435 C 216.548 138.782,216.511 138.586,217.138 137.807 C 217.502 137.354,223.470 130.532,230.400 122.648 C 237.330 114.764,243.621 107.568,244.380 106.657 C 245.140 105.746,247.045 103.560,248.614 101.800 C 250.184 100.040,252.782 97.070,254.388 95.200 C 255.994 93.330,258.098 90.920,259.064 89.845 L 260.821 87.890 263.790 88.771 C 271.835 91.159,280.995 88.418,285.574 82.251 C 287.301 79.926,284.909 79.496,306.657 86.043 C 316.966 89.146,326.030 91.860,326.800 92.073 C 327.570 92.287,330.450 93.152,333.200 93.996 C 335.950 94.841,340.810 96.299,344.000 97.238 C 350.464 99.139,350.385 99.085,350.394 101.627 C 350.422 109.927,358.133 118.228,367.102 119.614 C 381.312 121.809,393.091 108.008,388.861 94.119 C 384.263 79.020,364.207 75.286,354.545 87.730 C 352.690 90.118,356.951 91.073,320.400 80.081 L 290.200 71.000 289.708 68.028 C 287.573 55.123,276.643 47.748,264.500 51.018 M273.400 60.446 C 275.551 61.040,278.960 64.449,279.554 66.600 C 282.469 77.160,270.431 84.690,262.930 77.001 C 255.454 69.337,262.909 57.550,273.400 60.446 M374.269 90.834 C 380.268 93.737,381.930 101.586,377.591 106.516 C 370.257 114.847,357.267 107.416,360.470 96.723 C 362.065 91.402,369.174 88.367,374.269 90.834 M123.277 100.470 C 128.355 101.992,131.508 108.816,129.431 113.789 C 126.675 120.384,117.583 122.142,112.840 116.997 C 105.638 109.183,113.071 97.412,123.277 100.470 M203.277 140.470 C 208.355 141.992,211.508 148.816,209.431 153.789 C 206.675 160.384,197.583 162.142,192.840 156.997 C 185.629 149.174,193.058 137.409,203.277 140.470 M33.339 180.432 C 35.471 181.024,38.990 184.513,39.559 186.600 C 42.390 196.981,31.068 204.398,23.195 197.320 C 15.206 190.137,22.794 177.504,33.339 180.432 M364.000 191.150 C 356.711 193.494,351.398 199.783,350.476 207.160 L 350.197 209.394 348.199 209.893 C 347.099 210.168,342.870 211.127,338.800 212.024 C 334.730 212.921,327.350 214.550,322.400 215.646 C 294.602 221.796,298.149 221.403,296.184 218.551 C 288.711 207.700,271.025 207.742,263.800 218.627 C 260.712 223.279,259.467 229.271,260.607 234.000 C 260.952 235.430,261.271 236.887,261.317 237.238 C 261.385 237.765,213.373 274.400,212.614 274.400 C 212.512 274.400,211.567 273.854,210.514 273.186 C 203.501 268.736,193.782 269.504,187.058 275.039 L 184.725 276.959 162.126 265.662 L 139.526 254.364 139.791 252.077 C 140.852 242.938,134.280 233.311,125.416 231.017 C 109.673 226.943,95.872 241.719,101.433 256.693 L 102.359 259.186 99.479 261.760 C 95.602 265.226,74.539 283.953,66.637 290.959 C 63.138 294.061,56.133 300.290,51.071 304.800 C 40.973 313.796,41.577 313.478,37.701 311.831 C 16.716 302.913,-0.181 331.963,17.996 345.710 C 33.267 357.259,54.420 342.412,48.845 324.057 C 48.380 322.527,48.000 321.096,48.000 320.876 C 48.000 320.656,53.441 315.644,60.091 309.738 C 66.741 303.832,80.329 291.755,90.286 282.900 C 100.243 274.045,108.652 266.800,108.972 266.800 C 109.292 266.800,110.150 267.146,110.877 267.569 C 117.452 271.391,126.725 270.184,133.327 264.646 L 135.253 263.030 157.871 274.337 L 180.489 285.643 180.221 288.138 C 179.274 296.981,185.368 306.165,193.942 308.814 C 209.827 313.724,223.626 299.300,218.637 283.000 C 218.433 282.331,262.987 248.149,266.998 245.898 C 267.324 245.715,268.457 246.139,269.868 246.970 C 282.311 254.301,297.546 246.735,299.808 232.100 C 299.952 231.165,300.150 230.400,300.247 230.400 C 300.344 230.400,308.563 228.585,318.512 226.368 C 356.452 217.910,351.784 218.541,353.981 221.573 C 363.053 234.096,382.692 231.661,388.468 217.297 C 389.267 215.311,389.393 214.297,389.396 209.800 L 389.400 204.600 387.896 201.522 C 383.573 192.678,373.222 188.185,364.000 191.150 M374.942 201.345 C 382.344 205.683,381.357 216.554,373.301 219.429 C 366.453 221.873,359.378 216.208,360.129 208.881 C 360.848 201.863,368.865 197.784,374.942 201.345 M282.890 220.418 C 286.801 221.504,290.007 225.806,289.991 229.946 C 289.948 241.150,274.336 243.789,270.608 233.222 C 267.932 225.639,275.033 218.236,282.890 220.418 M122.890 240.418 C 126.819 241.510,130.000 245.796,130.000 250.000 C 130.000 257.167,121.903 262.260,115.650 259.026 C 104.862 253.447,111.195 237.170,122.890 240.418 M202.890 280.418 C 205.170 281.051,207.634 283.163,208.883 285.553 C 213.400 294.199,203.441 303.568,194.995 298.618 C 184.930 292.719,191.623 277.289,202.890 280.418 M35.001 321.379 C 45.277 327.402,37.996 343.350,26.778 339.392 C 17.891 336.257,17.839 323.853,26.699 320.546 C 28.989 319.692,32.768 320.071,35.001 321.379 " stroke="none" fill="#478cc5" fill-rule="evenodd"></path><path id="path1" d="M0.000 200.000 L 0.000 400.000 200.000 400.000 L 400.000 400.000 400.000 200.000 L 400.000 0.000 200.000 0.000 L 0.000 0.000 0.000 200.000 M278.490 51.722 C 285.023 54.890,289.679 61.217,290.273 67.733 C 290.561 70.894,290.123 70.576,296.800 72.463 C 299.110 73.115,302.530 74.165,304.400 74.795 C 306.270 75.426,310.320 76.608,313.400 77.424 C 316.480 78.239,319.345 79.085,319.767 79.303 C 320.190 79.522,322.350 80.201,324.567 80.814 C 326.785 81.426,329.680 82.311,331.000 82.780 C 332.320 83.250,335.388 84.151,337.818 84.784 C 340.247 85.417,343.307 86.318,344.618 86.787 C 345.928 87.256,348.254 87.982,349.786 88.402 L 352.571 89.164 355.250 86.257 C 371.462 68.663,399.682 89.705,387.526 110.324 C 377.311 127.650,349.600 120.324,349.600 100.297 C 349.600 99.460,349.207 99.246,345.900 98.283 C 343.865 97.690,339.230 96.315,335.600 95.227 C 331.970 94.140,326.750 92.589,324.000 91.781 C 321.250 90.973,317.650 89.869,316.000 89.327 C 314.350 88.786,311.650 87.986,310.000 87.550 C 308.350 87.114,304.210 85.878,300.800 84.803 C 297.390 83.729,293.024 82.417,291.097 81.887 L 287.594 80.925 284.483 83.963 C 278.344 89.957,269.897 91.996,263.123 89.119 L 261.246 88.321 258.883 90.861 C 256.010 93.947,247.278 103.926,238.211 114.486 C 236.457 116.529,232.407 121.150,229.211 124.755 C 226.015 128.361,222.680 132.179,221.800 133.240 C 220.920 134.302,219.514 135.973,218.677 136.955 L 217.153 138.740 217.946 140.294 C 221.096 146.468,220.766 155.365,217.189 160.722 C 205.593 178.087,180.131 170.613,179.981 149.800 L 179.952 145.800 159.476 135.654 C 148.214 130.073,138.550 125.265,138.000 124.969 C 134.982 123.346,135.169 123.385,134.463 124.239 C 129.506 130.233,119.160 131.966,111.113 128.150 L 108.827 127.066 106.895 128.833 C 105.833 129.805,103.896 131.500,102.591 132.600 C 101.286 133.700,99.036 135.680,97.590 137.000 C 92.868 141.313,88.266 145.418,84.600 148.589 C 82.620 150.302,80.190 152.471,79.200 153.409 C 78.210 154.348,76.230 156.147,74.800 157.408 C 73.370 158.670,70.740 161.028,68.956 162.650 C 67.172 164.271,65.093 166.093,64.335 166.699 C 62.641 168.054,53.933 175.807,50.744 178.800 L 48.399 181.000 49.158 183.000 C 56.730 202.964,31.013 219.402,15.709 204.380 C -0.305 188.661,18.534 161.832,38.682 171.664 L 41.165 172.875 44.363 170.056 C 46.123 168.506,47.904 166.914,48.321 166.519 C 48.738 166.123,50.036 164.990,51.207 164.000 C 52.377 163.010,54.750 160.897,56.479 159.305 C 58.209 157.712,60.728 155.491,62.078 154.367 C 63.428 153.244,65.520 151.397,66.727 150.262 C 67.935 149.128,69.343 147.805,69.858 147.322 C 70.372 146.839,71.065 146.291,71.399 146.104 C 71.733 145.918,73.040 144.771,74.303 143.557 C 75.566 142.343,78.040 140.117,79.800 138.610 C 81.560 137.103,84.225 134.733,85.723 133.342 C 87.221 131.951,88.832 130.543,89.303 130.213 C 89.775 129.882,91.752 128.146,93.697 126.354 C 95.643 124.562,98.216 122.288,99.417 121.299 C 101.906 119.250,101.885 119.329,100.761 116.163 C 96.960 105.460,103.902 93.231,115.482 90.231 C 128.233 86.926,141.632 98.500,140.260 111.633 C 139.980 114.311,139.412 113.784,146.000 116.959 C 148.090 117.967,150.070 118.964,150.400 119.175 C 150.730 119.386,156.130 122.096,162.400 125.198 C 168.670 128.301,174.070 131.004,174.400 131.205 C 174.730 131.407,176.080 132.067,177.400 132.672 C 178.720 133.276,180.960 134.380,182.378 135.124 C 184.475 136.224,185.034 136.376,185.378 135.938 C 189.542 130.634,201.237 127.965,207.227 130.953 C 208.697 131.687,208.818 131.635,210.751 129.455 C 211.548 128.555,212.560 127.444,213.000 126.986 C 213.440 126.528,214.790 124.994,216.000 123.578 C 218.986 120.082,220.807 118.034,222.000 116.830 C 222.550 116.275,223.270 115.436,223.600 114.966 C 223.930 114.497,225.391 112.782,226.846 111.156 C 228.301 109.530,231.058 106.400,232.971 104.200 C 234.885 102.000,237.332 99.210,238.410 98.000 C 240.661 95.472,247.246 87.967,250.225 84.534 C 253.022 81.310,252.968 81.551,251.610 78.360 C 244.164 60.862,261.635 43.550,278.490 51.722 M267.022 61.091 C 263.626 61.955,261.179 65.197,260.892 69.214 C 260.688 72.068,261.543 75.200,262.527 75.200 C 262.751 75.200,262.815 75.318,262.670 75.463 C 262.303 75.830,263.208 76.842,263.655 76.566 C 263.856 76.442,263.970 76.548,263.910 76.801 C 263.424 78.835,270.728 80.014,274.049 78.438 C 276.074 77.476,278.468 75.336,276.991 75.808 C 276.217 76.055,276.217 76.050,277.000 75.564 C 278.112 74.875,278.412 74.331,278.195 73.400 C 278.092 72.960,278.111 72.826,278.238 73.102 C 278.766 74.255,279.200 72.964,279.200 70.239 C 279.200 67.182,277.878 63.667,276.819 63.910 C 276.556 63.970,276.446 63.849,276.575 63.640 C 276.828 63.231,275.287 62.056,273.481 61.280 C 272.386 60.810,268.566 60.698,267.022 61.091 M366.878 91.147 C 362.643 92.634,360.587 95.921,360.895 100.712 C 361.087 103.704,362.836 107.176,364.008 106.890 C 364.256 106.830,364.350 106.957,364.217 107.173 C 363.889 107.703,365.909 108.703,368.371 109.231 C 370.487 109.685,374.800 108.852,374.800 107.989 C 374.800 107.775,374.947 107.645,375.126 107.700 C 375.686 107.872,377.998 105.302,378.618 103.818 C 381.816 96.165,374.641 88.420,366.878 91.147 M116.438 101.356 C 112.198 102.738,109.638 107.974,110.967 112.546 C 111.327 113.786,111.776 114.800,111.965 114.800 C 112.153 114.800,112.397 115.144,112.506 115.563 C 112.845 116.860,115.778 118.652,118.406 119.169 C 124.169 120.303,129.363 115.970,129.350 110.041 C 129.344 107.616,128.891 105.897,128.345 106.234 C 128.068 106.405,128.001 106.226,128.158 105.732 C 129.107 102.742,121.220 99.798,116.438 101.356 M199.600 140.799 C 199.600 140.959,199.180 141.009,198.667 140.911 C 195.992 140.399,190.113 145.632,190.940 147.787 C 191.049 148.071,190.962 148.478,190.747 148.693 C 190.520 148.920,190.472 149.947,190.632 151.153 C 191.680 159.054,201.634 162.111,207.131 156.221 C 207.657 155.657,207.934 155.018,207.769 154.750 C 207.597 154.471,207.647 154.382,207.892 154.533 C 208.574 154.955,209.350 152.443,209.344 149.836 C 209.338 147.345,208.323 144.553,207.588 145.008 C 207.379 145.136,207.302 144.999,207.416 144.703 C 207.620 144.170,206.538 143.024,204.731 141.859 C 203.694 141.190,199.600 140.345,199.600 140.799 M28.400 180.792 C 22.943 181.836,19.715 186.743,20.960 192.100 C 21.550 194.636,23.366 197.375,24.236 197.041 C 24.541 196.924,24.748 197.022,24.695 197.257 C 24.519 198.048,27.578 199.311,29.732 199.337 C 32.143 199.366,36.662 197.547,36.167 196.747 C 35.999 196.474,36.048 196.383,36.285 196.529 C 36.988 196.963,38.252 195.117,39.113 192.400 C 41.057 186.264,34.864 179.554,28.400 180.792 M373.334 189.979 C 386.158 191.631,394.191 207.053,388.332 218.773 C 381.063 233.317,361.743 234.194,352.384 220.405 C 351.795 219.537,351.674 219.519,349.584 219.985 C 345.124 220.980,340.047 222.078,334.684 223.209 C 331.650 223.849,328.981 224.488,328.753 224.629 C 328.524 224.770,324.617 225.654,320.069 226.593 C 315.521 227.533,310.810 228.579,309.600 228.918 C 308.390 229.257,305.883 229.822,304.028 230.172 C 300.003 230.934,300.575 230.413,299.827 234.000 C 296.980 247.655,282.845 254.190,270.128 247.731 C 266.883 246.083,267.030 246.054,263.400 249.061 C 262.520 249.790,258.830 252.584,255.200 255.270 C 246.800 261.484,231.720 272.788,230.632 273.686 C 230.174 274.064,228.000 275.708,225.800 277.340 C 218.912 282.451,219.097 282.230,219.584 284.755 C 222.523 299.983,211.727 312.043,196.927 310.066 C 187.189 308.765,180.534 301.111,180.030 290.631 L 179.800 285.861 157.512 274.669 L 135.224 263.476 133.445 265.115 C 127.443 270.648,118.486 271.892,111.207 268.203 C 108.656 266.911,108.873 266.864,106.360 269.246 C 105.172 270.372,103.030 272.307,101.601 273.546 C 100.172 274.786,96.482 278.061,93.401 280.825 C 90.320 283.588,84.290 288.955,80.000 292.750 C 75.710 296.546,70.310 301.331,68.000 303.385 C 63.843 307.081,61.379 309.258,54.000 315.755 C 51.910 317.595,49.798 319.536,49.307 320.068 L 48.415 321.036 49.280 323.218 C 50.450 326.169,50.525 332.755,49.426 336.000 C 42.982 355.019,16.813 355.051,10.689 336.048 C 5.236 319.123,23.001 303.997,39.091 311.863 L 41.183 312.886 42.459 311.812 C 43.161 311.221,45.267 309.357,47.139 307.669 C 49.012 305.981,51.456 303.777,52.572 302.771 C 56.449 299.275,66.264 290.587,68.806 288.400 C 70.213 287.190,72.002 285.586,72.782 284.836 C 73.562 284.085,76.090 281.826,78.400 279.814 C 80.710 277.802,83.147 275.626,83.816 274.978 C 84.484 274.330,86.002 272.990,87.187 272.000 C 88.372 271.010,90.885 268.779,92.771 267.043 C 94.657 265.307,97.415 262.902,98.900 261.698 C 101.984 259.198,101.864 259.549,100.751 256.287 C 96.804 244.731,104.933 231.537,116.992 229.926 C 130.055 228.180,141.620 239.099,140.227 251.861 C 139.972 254.199,139.978 254.205,145.600 256.808 C 147.030 257.470,148.830 258.355,149.600 258.775 C 150.370 259.195,153.970 260.996,157.600 262.777 C 161.230 264.559,164.650 266.287,165.200 266.619 C 165.750 266.951,167.910 268.025,170.000 269.005 C 172.090 269.986,174.070 270.954,174.400 271.157 C 174.730 271.360,177.215 272.631,179.922 273.980 L 184.844 276.434 186.783 274.691 C 192.881 269.208,201.782 268.155,209.425 272.013 C 211.430 273.025,212.948 273.563,213.269 273.377 C 213.561 273.208,217.999 269.904,223.130 266.035 C 228.262 262.166,233.224 258.460,234.158 257.800 C 235.092 257.140,237.455 255.340,239.409 253.800 C 241.363 252.260,244.087 250.190,245.463 249.200 C 246.838 248.210,250.854 245.240,254.387 242.600 L 260.811 237.800 260.506 236.200 C 259.253 229.642,260.506 222.072,263.492 218.161 C 272.638 206.183,288.879 206.928,297.731 219.733 C 298.304 220.563,299.294 220.416,309.305 218.019 C 311.997 217.374,315.640 216.577,317.400 216.248 C 319.160 215.919,323.300 215.020,326.600 214.251 C 329.900 213.482,333.770 212.635,335.200 212.369 C 336.630 212.103,338.070 211.749,338.400 211.582 C 338.730 211.415,341.339 210.797,344.198 210.208 C 350.336 208.944,349.544 209.490,350.089 206.146 C 351.796 195.679,362.077 188.528,373.334 189.979 " stroke="none" fill="#ffffff" fill-rule="evenodd"></path><path id="path2" d="M369.100 90.282 C 369.595 90.378,370.405 90.378,370.900 90.282 C 371.395 90.187,370.990 90.109,370.000 90.109 C 369.010 90.109,368.605 90.187,369.100 90.282 M110.114 110.200 C 110.117 111.300,110.195 111.703,110.287 111.095 C 110.379 110.486,110.377 109.586,110.282 109.095 C 110.187 108.603,110.111 109.100,110.114 110.200 M76.175 142.100 L 75.000 143.400 76.300 142.225 C 77.512 141.130,77.784 140.800,77.475 140.800 C 77.406 140.800,76.821 141.385,76.175 142.100 M190.114 149.800 C 190.117 150.900,190.195 151.303,190.287 150.695 C 190.379 150.086,190.377 149.186,190.282 148.695 C 190.187 148.203,190.111 148.700,190.114 149.800 M368.361 200.793 C 357.198 202.754,358.560 219.221,369.902 219.411 C 375.362 219.503,379.774 214.878,379.376 209.481 C 378.942 203.581,374.124 199.781,368.361 200.793 M277.576 220.941 C 268.429 223.431,268.202 236.011,277.250 239.016 C 282.034 240.606,287.942 237.430,289.153 232.620 C 290.963 225.431,284.613 219.026,277.576 220.941 M117.164 241.027 C 111.209 242.843,108.667 249.842,112.087 255.005 C 117.994 263.923,131.385 258.324,129.210 247.846 C 128.131 242.653,122.425 239.423,117.164 241.027 M93.775 266.500 L 92.600 267.800 93.900 266.625 C 95.112 265.530,95.384 265.200,95.075 265.200 C 95.006 265.200,94.421 265.785,93.775 266.500 M105.775 269.300 L 104.600 270.600 105.900 269.425 C 107.112 268.330,107.384 268.000,107.075 268.000 C 107.006 268.000,106.421 268.585,105.775 269.300 M197.743 280.782 C 195.023 281.430,191.565 284.371,191.460 286.125 C 191.427 286.674,191.282 287.050,191.138 286.961 C 190.993 286.872,190.754 287.682,190.605 288.762 C 189.444 297.206,199.479 302.636,206.124 297.158 C 213.701 290.913,207.344 278.492,197.743 280.782 M91.375 282.100 L 90.200 283.400 91.500 282.225 C 92.712 281.130,92.984 280.800,92.675 280.800 C 92.606 280.800,92.021 281.385,91.375 282.100 M72.175 285.700 L 71.000 287.000 72.300 285.825 C 73.512 284.730,73.784 284.400,73.475 284.400 C 73.406 284.400,72.821 284.985,72.175 285.700 M87.375 285.700 L 86.200 287.000 87.500 285.825 C 88.712 284.730,88.984 284.400,88.675 284.400 C 88.606 284.400,88.021 284.985,87.375 285.700 M69.775 301.300 L 68.600 302.600 69.900 301.425 C 71.112 300.330,71.384 300.000,71.075 300.000 C 71.006 300.000,70.421 300.585,69.775 301.300 M27.576 320.946 C 24.144 321.871,21.998 323.974,21.062 327.328 C 18.365 336.996,30.129 343.747,36.853 336.391 C 43.295 329.344,36.762 318.469,27.576 320.946 " stroke="none" fill="#9ecbf6" fill-rule="evenodd"></path><path id="path3" d="M268.700 50.289 C 269.415 50.378,270.585 50.378,271.300 50.289 C 272.015 50.201,271.430 50.128,270.000 50.128 C 268.570 50.128,267.985 50.201,268.700 50.289 M250.128 70.000 C 250.128 71.430,250.201 72.015,250.289 71.300 C 250.378 70.585,250.378 69.415,250.289 68.700 C 250.201 67.985,250.128 68.570,250.128 70.000 M270.500 89.876 C 270.885 89.976,271.515 89.976,271.900 89.876 C 272.285 89.775,271.970 89.693,271.200 89.693 C 270.430 89.693,270.115 89.775,270.500 89.876 M120.500 90.276 C 120.885 90.376,121.515 90.376,121.900 90.276 C 122.285 90.175,121.970 90.093,121.200 90.093 C 120.430 90.093,120.115 90.175,120.500 90.276 M389.731 99.800 C 389.733 101.340,389.805 101.921,389.892 101.091 C 389.979 100.261,389.977 99.001,389.889 98.291 C 389.800 97.581,389.729 98.260,389.731 99.800 M350.093 100.800 C 350.093 101.570,350.175 101.885,350.276 101.500 C 350.376 101.115,350.376 100.485,350.276 100.100 C 350.175 99.715,350.093 100.030,350.093 100.800 M95.775 124.900 L 94.600 126.200 95.900 125.025 C 96.615 124.379,97.200 123.794,97.200 123.725 C 97.200 123.416,96.870 123.688,95.775 124.900 M199.107 130.290 C 199.826 130.379,200.906 130.377,201.507 130.286 C 202.108 130.195,201.520 130.122,200.200 130.124 C 198.880 130.126,198.388 130.201,199.107 130.290 M96.575 137.300 L 95.400 138.600 96.700 137.425 C 97.415 136.779,98.000 136.194,98.000 136.125 C 98.000 135.816,97.670 136.088,96.575 137.300 M89.375 143.700 L 88.200 145.000 89.500 143.825 C 90.215 143.179,90.800 142.594,90.800 142.525 C 90.800 142.216,90.470 142.488,89.375 143.700 M28.900 170.287 C 29.505 170.378,30.495 170.378,31.100 170.287 C 31.705 170.195,31.210 170.120,30.000 170.120 C 28.790 170.120,28.295 170.195,28.900 170.287 M49.728 190.000 C 49.728 191.430,49.801 192.015,49.889 191.300 C 49.978 190.585,49.978 189.415,49.889 188.700 C 49.801 187.985,49.728 188.570,49.728 190.000 M10.120 190.000 C 10.120 191.210,10.195 191.705,10.287 191.100 C 10.378 190.495,10.378 189.505,10.287 188.900 C 10.195 188.295,10.120 188.790,10.120 190.000 M368.900 190.287 C 369.505 190.378,370.495 190.378,371.100 190.287 C 371.705 190.195,371.210 190.120,370.000 190.120 C 368.790 190.120,368.295 190.195,368.900 190.287 M366.699 200.546 C 358.430 203.632,357.732 214.797,365.553 218.883 C 374.956 223.795,384.562 211.709,377.719 203.576 C 375.240 200.631,370.192 199.242,366.699 200.546 M374.831 201.860 C 378.822 204.023,380.619 209.798,378.576 213.897 C 374.758 221.560,364.147 221.186,361.191 213.284 C 358.095 205.008,366.953 197.590,374.831 201.860 M389.728 210.000 C 389.728 211.430,389.801 212.015,389.889 211.300 C 389.978 210.585,389.978 209.415,389.889 208.700 C 389.801 207.985,389.728 208.570,389.728 210.000 M28.700 209.889 C 29.415 209.978,30.585 209.978,31.300 209.889 C 32.015 209.801,31.430 209.728,30.000 209.728 C 28.570 209.728,27.985 209.801,28.700 209.889 M278.900 210.287 C 279.505 210.378,280.495 210.378,281.100 210.287 C 281.705 210.195,281.210 210.120,280.000 210.120 C 278.790 210.120,278.295 210.195,278.900 210.287 M276.651 220.563 C 266.186 224.459,268.862 239.825,280.000 239.791 C 287.381 239.768,292.164 232.608,289.184 226.040 C 288.100 223.651,287.829 224.148,288.809 226.728 C 292.984 237.715,276.928 244.710,271.516 234.261 C 266.761 225.081,280.253 215.511,286.811 223.413 C 287.079 223.736,287.484 224.000,287.711 224.000 C 288.407 224.000,286.699 222.374,284.885 221.311 C 282.750 220.060,278.933 219.713,276.651 220.563 M368.700 229.889 C 369.415 229.978,370.585 229.978,371.300 229.889 C 372.015 229.801,371.430 229.728,370.000 229.728 C 368.570 229.728,367.985 229.801,368.700 229.889 M118.707 230.290 C 119.426 230.379,120.506 230.377,121.107 230.286 C 121.708 230.195,121.120 230.122,119.800 230.124 C 118.480 230.126,117.988 230.201,118.707 230.290 M116.651 240.587 C 109.358 243.187,107.765 253.268,113.917 257.889 C 117.982 260.942,124.082 260.467,127.362 256.841 C 128.483 255.603,127.713 255.818,126.167 257.175 C 121.899 260.923,115.337 259.912,112.087 255.005 C 108.637 249.797,111.219 242.813,117.257 241.020 C 125.138 238.680,132.250 246.941,128.536 254.123 C 128.209 254.756,128.041 255.374,128.163 255.497 C 128.286 255.619,128.745 254.927,129.184 253.960 C 132.703 246.204,124.737 237.705,116.651 240.587 M99.375 261.700 L 98.200 263.000 99.500 261.825 C 100.215 261.179,100.800 260.594,100.800 260.525 C 100.800 260.216,100.470 260.488,99.375 261.700 M199.107 270.290 C 199.826 270.379,200.906 270.377,201.507 270.286 C 202.108 270.195,201.520 270.122,200.200 270.124 C 198.880 270.126,198.388 270.201,199.107 270.290 M196.699 280.571 C 191.648 282.373,188.847 288.036,190.543 293.014 C 193.452 301.553,204.711 302.433,208.883 294.447 C 212.975 286.614,205.052 277.590,196.699 280.571 M202.777 281.030 C 209.914 283.150,211.843 292.444,206.124 297.158 C 199.479 302.636,189.444 297.206,190.605 288.762 C 190.754 287.682,190.993 286.872,191.138 286.961 C 191.282 287.050,191.427 286.674,191.460 286.125 C 191.675 282.537,198.104 279.643,202.777 281.030 M63.375 293.700 L 62.200 295.000 63.500 293.825 C 64.712 292.730,64.984 292.400,64.675 292.400 C 64.606 292.400,64.021 292.985,63.375 293.700 M67.775 302.900 L 66.600 304.200 67.900 303.025 C 69.112 301.930,69.384 301.600,69.075 301.600 C 69.006 301.600,68.421 302.185,67.775 302.900 M198.700 309.889 C 199.415 309.978,200.585 309.978,201.300 309.889 C 202.015 309.801,201.430 309.728,200.000 309.728 C 198.570 309.728,197.985 309.801,198.700 309.889 M26.699 320.546 C 17.839 323.853,17.891 336.257,26.778 339.392 C 35.950 342.628,43.753 332.005,38.018 324.088 C 35.599 320.749,30.463 319.141,26.699 320.546 M32.627 320.989 C 39.483 323.034,41.695 331.095,36.853 336.391 C 30.129 343.747,18.365 336.996,21.062 327.328 C 22.485 322.229,27.525 319.466,32.627 320.989 M10.131 329.800 C 10.133 331.340,10.205 331.921,10.292 331.091 C 10.379 330.261,10.377 329.001,10.289 328.291 C 10.200 327.581,10.129 328.260,10.131 329.800 M49.731 329.800 C 49.733 331.340,49.805 331.921,49.892 331.091 C 49.979 330.261,49.977 329.001,49.889 328.291 C 49.800 327.581,49.729 328.260,49.731 329.800 " stroke="none" fill="#8bc4f9" fill-rule="evenodd"></path><path id="path4" d="M266.202 49.968 C 265.764 50.139,266.934 50.203,268.802 50.109 C 273.210 49.890,273.810 49.664,270.000 49.660 C 268.350 49.658,266.641 49.796,266.202 49.968 M273.633 50.144 C 273.725 50.223,274.340 50.408,275.000 50.556 C 275.876 50.752,276.038 50.715,275.600 50.418 C 275.060 50.053,273.232 49.798,273.633 50.144 M255.785 55.700 L 253.800 57.800 255.900 55.815 C 257.851 53.971,258.183 53.600,257.885 53.600 C 257.822 53.600,256.877 54.545,255.785 55.700 M267.920 60.380 C 265.918 60.769,263.444 62.471,262.019 64.437 C 255.357 73.634,267.683 84.769,276.331 77.366 C 282.222 72.324,280.207 62.837,272.777 60.630 C 270.501 59.954,270.190 59.938,267.920 60.380 M273.481 61.280 C 275.287 62.056,276.828 63.231,276.575 63.640 C 276.446 63.849,276.556 63.970,276.819 63.910 C 277.878 63.667,279.200 67.182,279.200 70.239 C 279.200 72.964,278.766 74.255,278.238 73.102 C 278.111 72.826,278.092 72.960,278.195 73.400 C 278.412 74.331,278.112 74.875,277.000 75.564 C 276.217 76.050,276.217 76.055,276.991 75.808 C 278.468 75.336,276.074 77.476,274.049 78.438 C 270.728 80.014,263.424 78.835,263.910 76.801 C 263.970 76.548,263.856 76.442,263.655 76.566 C 263.208 76.842,262.303 75.830,262.670 75.463 C 262.815 75.318,262.751 75.200,262.527 75.200 C 261.543 75.200,260.688 72.068,260.892 69.214 C 261.179 65.197,263.626 61.955,267.022 61.091 C 268.566 60.698,272.386 60.810,273.481 61.280 M250.446 64.039 C 250.201 64.743,250.012 65.608,250.027 65.960 C 250.041 66.312,250.304 65.797,250.609 64.816 C 251.249 62.762,251.115 62.122,250.446 64.039 M289.256 64.000 C 289.256 64.330,289.411 64.960,289.600 65.400 C 289.817 65.904,289.944 65.978,289.944 65.600 C 289.944 65.270,289.789 64.640,289.600 64.200 C 289.383 63.696,289.256 63.622,289.256 64.000 M290.046 68.476 C 290.021 69.508,290.142 70.441,290.316 70.548 C 290.490 70.656,290.570 70.082,290.493 69.272 C 290.259 66.798,290.095 66.507,290.046 68.476 M249.728 69.600 C 249.728 71.030,249.801 71.615,249.889 70.900 C 249.978 70.185,249.978 69.015,249.889 68.300 C 249.801 67.585,249.728 68.170,249.728 69.600 M315.800 78.400 C 316.240 78.589,316.870 78.744,317.200 78.744 C 317.578 78.744,317.504 78.617,317.000 78.400 C 316.560 78.211,315.930 78.056,315.600 78.056 C 315.222 78.056,315.296 78.183,315.800 78.400 M369.100 79.882 C 369.595 79.978,370.405 79.978,370.900 79.882 C 371.395 79.787,370.990 79.709,370.000 79.709 C 369.010 79.709,368.605 79.787,369.100 79.882 M360.400 82.024 C 359.190 82.689,357.840 83.624,357.400 84.101 L 356.600 84.970 357.450 84.268 C 357.918 83.882,359.448 82.948,360.850 82.192 C 362.253 81.436,363.220 80.817,363.000 80.816 C 362.780 80.815,361.610 81.359,360.400 82.024 M289.800 81.600 C 290.240 81.789,290.870 81.944,291.200 81.944 C 291.578 81.944,291.504 81.817,291.000 81.600 C 290.560 81.411,289.930 81.256,289.600 81.256 C 289.222 81.256,289.296 81.383,289.800 81.600 M380.400 82.764 C 380.950 83.214,381.580 83.583,381.800 83.585 C 382.228 83.588,381.505 83.034,380.200 82.360 C 379.669 82.085,379.736 82.221,380.400 82.764 M250.378 84.300 L 249.000 85.800 250.500 84.422 C 251.896 83.138,252.184 82.800,251.878 82.800 C 251.812 82.800,251.137 83.475,250.378 84.300 M339.800 85.600 C 340.240 85.789,340.870 85.944,341.200 85.944 C 341.578 85.944,341.504 85.817,341.000 85.600 C 340.560 85.411,339.930 85.256,339.600 85.256 C 339.222 85.256,339.296 85.383,339.800 85.600 M344.400 87.000 C 346.226 87.703,346.945 87.693,345.400 86.986 C 344.740 86.683,343.930 86.442,343.600 86.448 C 343.270 86.455,343.630 86.703,344.400 87.000 M258.872 90.409 C 256.116 93.506,256.425 93.499,259.335 90.400 C 260.575 89.080,261.456 88.004,261.294 88.009 C 261.132 88.014,260.042 89.094,258.872 90.409 M276.400 89.034 C 275.090 89.570,275.077 89.592,276.200 89.375 C 276.860 89.248,277.571 88.976,277.780 88.772 C 278.259 88.303,278.121 88.329,276.400 89.034 M387.752 90.783 C 388.433 92.082,389.049 93.084,389.122 93.012 C 389.310 92.823,387.285 88.900,386.865 88.640 C 386.672 88.521,387.071 89.485,387.752 90.783 M244.975 90.500 L 243.800 91.800 245.100 90.625 C 245.815 89.979,246.400 89.394,246.400 89.325 C 246.400 89.016,246.070 89.288,244.975 90.500 M264.200 89.600 C 264.640 89.789,265.360 89.938,265.800 89.932 C 266.443 89.923,266.404 89.857,265.600 89.600 C 264.232 89.162,263.181 89.162,264.200 89.600 M118.711 89.893 C 119.651 89.978,121.091 89.977,121.911 89.891 C 122.730 89.805,121.960 89.736,120.200 89.737 C 118.440 89.739,117.770 89.809,118.711 89.893 M268.900 90.287 C 269.505 90.378,270.495 90.378,271.100 90.287 C 271.705 90.195,271.210 90.120,270.000 90.120 C 268.790 90.120,268.295 90.195,268.900 90.287 M366.000 91.038 C 361.719 92.892,359.267 98.076,360.563 102.533 C 361.198 104.718,364.267 108.832,364.267 107.499 C 364.267 107.139,364.107 106.879,363.912 106.922 C 362.815 107.163,361.079 103.590,360.895 100.712 C 360.587 95.916,362.652 92.619,366.878 91.159 C 368.045 90.756,368.640 90.427,368.200 90.429 C 367.760 90.430,366.770 90.704,366.000 91.038 M374.600 91.452 C 374.820 91.645,375.720 92.432,376.599 93.201 L 378.198 94.600 376.999 93.266 C 376.340 92.532,375.440 91.745,375.000 91.517 C 374.560 91.289,374.380 91.260,374.600 91.452 M242.181 93.700 L 240.600 95.400 242.300 93.819 C 243.881 92.348,244.184 92.000,243.881 92.000 C 243.816 92.000,243.051 92.765,242.181 93.700 M378.000 94.915 C 378.000 95.004,378.301 95.681,378.669 96.419 C 379.484 98.053,379.462 101.798,378.626 103.800 C 377.931 105.463,378.142 105.664,378.942 104.100 C 379.943 102.144,380.114 99.798,379.427 97.435 C 378.923 95.700,378.000 94.070,378.000 94.915 M390.131 99.400 C 390.133 100.940,390.205 101.521,390.292 100.691 C 390.379 99.861,390.377 98.601,390.289 97.891 C 390.200 97.181,390.129 97.860,390.131 99.400 M236.975 99.468 C 236.359 100.276,236.059 100.811,236.309 100.656 C 236.821 100.340,238.553 98.000,238.275 98.000 C 238.176 98.000,237.591 98.661,236.975 99.468 M349.701 100.600 C 349.705 101.480,349.787 101.793,349.883 101.295 C 349.979 100.798,349.975 100.078,349.875 99.695 C 349.775 99.313,349.696 99.720,349.701 100.600 M117.576 100.546 C 115.560 101.089,113.919 102.137,112.400 103.849 C 111.341 105.043,112.163 104.506,114.007 102.800 C 116.071 100.891,120.959 100.187,123.828 101.386 C 124.599 101.708,125.125 101.803,124.998 101.596 C 124.270 100.419,120.189 99.841,117.576 100.546 M234.175 102.900 L 233.000 104.200 234.300 103.025 C 235.015 102.379,235.600 101.794,235.600 101.725 C 235.600 101.416,235.270 101.688,234.175 102.900 M126.800 103.400 C 127.546 104.170,128.247 104.800,128.357 104.800 C 128.467 104.800,127.946 104.170,127.200 103.400 C 126.454 102.630,125.753 102.000,125.643 102.000 C 125.533 102.000,126.054 102.630,126.800 103.400 M110.846 106.439 C 110.601 107.143,110.412 108.098,110.427 108.560 C 110.442 109.022,110.696 108.500,110.992 107.400 C 111.604 105.121,111.514 104.524,110.846 106.439 M128.278 105.455 C 127.851 105.883,127.949 106.479,128.400 106.200 C 128.620 106.064,128.800 106.173,128.800 106.443 C 128.800 106.713,128.906 106.827,129.037 106.697 C 129.167 106.567,129.112 106.171,128.915 105.819 C 128.717 105.466,128.431 105.303,128.278 105.455 M230.975 106.500 L 229.800 107.800 231.100 106.625 C 231.815 105.979,232.400 105.394,232.400 105.325 C 232.400 105.016,232.070 105.288,230.975 106.500 M376.434 106.800 C 375.902 107.441,375.317 107.872,375.134 107.759 C 374.950 107.646,374.800 107.738,374.800 107.964 C 374.800 108.191,373.945 108.639,372.900 108.960 C 371.855 109.281,371.360 109.553,371.800 109.563 C 373.065 109.594,375.691 108.216,376.975 106.850 C 377.621 106.163,377.981 105.608,377.775 105.617 C 377.569 105.626,376.965 106.158,376.434 106.800 M350.804 106.713 C 350.798 107.470,352.703 111.094,353.292 111.448 C 353.693 111.689,353.699 111.628,353.320 111.160 C 353.056 110.834,352.383 109.584,351.824 108.383 C 351.265 107.183,350.806 106.431,350.804 106.713 M388.081 108.609 C 387.602 109.594,387.294 110.400,387.397 110.400 C 387.668 110.400,389.284 107.151,389.103 106.970 C 389.019 106.886,388.559 107.624,388.081 108.609 M129.323 109.600 C 129.306 114.173,126.902 117.738,123.060 118.889 C 122.193 119.149,121.673 119.424,121.905 119.502 C 125.320 120.640,130.707 112.926,129.657 108.400 C 129.379 107.201,129.331 107.374,129.323 109.600 M140.124 110.200 C 140.126 111.520,140.201 112.012,140.290 111.293 C 140.379 110.574,140.377 109.494,140.286 108.893 C 140.195 108.292,140.122 108.880,140.124 110.200 M365.369 108.597 C 366.233 109.263,368.705 109.829,369.085 109.448 C 369.222 109.312,368.938 109.200,368.454 109.200 C 367.970 109.200,366.905 108.931,366.087 108.602 C 364.784 108.078,364.695 108.077,365.369 108.597 M99.709 110.000 C 99.709 110.990,99.787 111.395,99.882 110.900 C 99.978 110.405,99.978 109.595,99.882 109.100 C 99.787 108.605,99.709 109.010,99.709 110.000 M241.578 110.300 L 240.200 111.800 241.700 110.422 C 243.096 109.138,243.384 108.800,243.078 108.800 C 243.012 108.800,242.337 109.475,241.578 110.300 M225.422 112.775 L 223.844 114.600 225.603 112.914 C 226.570 111.986,227.280 111.165,227.180 111.088 C 227.081 111.012,226.290 111.771,225.422 112.775 M110.437 111.800 C 110.349 115.459,116.043 120.134,120.373 119.958 C 120.938 119.936,120.102 119.603,118.517 119.219 C 115.514 118.491,112.845 116.859,112.500 115.539 C 112.394 115.133,112.153 114.800,111.965 114.800 C 111.778 114.800,111.361 113.945,111.040 112.900 C 110.719 111.855,110.447 111.360,110.437 111.800 M384.975 113.468 C 384.359 114.276,384.059 114.811,384.309 114.656 C 384.821 114.340,386.553 112.000,386.275 112.000 C 386.176 112.000,385.591 112.661,384.975 113.468 M356.688 115.223 C 357.396 115.988,358.566 116.933,359.288 117.324 C 360.554 118.010,360.565 118.009,359.604 117.317 C 359.056 116.923,357.886 115.978,357.004 115.217 L 355.400 113.834 356.688 115.223 M381.414 116.446 C 379.313 118.026,379.116 118.287,380.727 117.362 C 381.862 116.710,383.647 115.145,383.162 115.227 C 383.073 115.242,382.286 115.791,381.414 116.446 M219.775 119.300 L 218.600 120.600 219.900 119.425 C 220.615 118.779,221.200 118.194,221.200 118.125 C 221.200 117.816,220.870 118.088,219.775 119.300 M232.000 121.200 C 230.413 122.960,229.205 124.400,229.315 124.400 C 229.425 124.400,230.813 122.960,232.400 121.200 C 233.987 119.440,235.195 118.000,235.085 118.000 C 234.975 118.000,233.587 119.440,232.000 121.200 M217.029 122.362 L 215.858 123.800 217.209 122.513 C 217.951 121.805,218.478 121.158,218.379 121.075 C 218.281 120.992,217.673 121.571,217.029 122.362 M154.400 121.387 C 154.400 121.497,155.300 122.043,156.400 122.600 C 157.500 123.157,158.400 123.523,158.400 123.413 C 158.400 123.303,157.500 122.757,156.400 122.200 C 155.300 121.643,154.400 121.277,154.400 121.387 M95.781 124.500 L 94.200 126.200 95.900 124.619 C 97.481 123.148,97.784 122.800,97.481 122.800 C 97.416 122.800,96.651 123.565,95.781 124.500 M137.173 124.567 C 137.581 125.059,139.200 125.718,139.200 125.392 C 139.200 125.319,138.642 124.980,137.960 124.640 C 137.022 124.172,136.830 124.155,137.173 124.567 M227.578 126.300 L 226.200 127.800 227.700 126.422 C 229.096 125.138,229.384 124.800,229.078 124.800 C 229.012 124.800,228.337 125.475,227.578 126.300 M162.400 125.379 C 162.400 125.489,162.940 125.859,163.600 126.200 C 164.260 126.541,164.800 126.731,164.800 126.621 C 164.800 126.511,164.260 126.141,163.600 125.800 C 162.940 125.459,162.400 125.269,162.400 125.379 M212.643 127.261 C 212.311 127.734,211.203 128.994,210.181 130.061 C 209.159 131.127,208.475 132.000,208.661 132.000 C 208.848 132.000,209.810 131.066,210.800 129.925 C 212.887 127.521,213.728 126.400,213.445 126.400 C 213.335 126.400,212.974 126.787,212.643 127.261 M106.783 128.700 L 105.000 130.600 106.993 128.800 C 108.088 127.810,109.063 126.955,109.159 126.900 C 109.255 126.845,109.161 126.800,108.950 126.800 C 108.739 126.800,107.764 127.655,106.783 128.700 M224.975 129.300 L 223.800 130.600 225.100 129.425 C 225.815 128.779,226.400 128.194,226.400 128.125 C 226.400 127.816,226.070 128.088,224.975 129.300 M146.400 128.997 C 146.400 129.268,149.649 130.884,149.830 130.703 C 149.914 130.619,149.176 130.159,148.191 129.681 C 147.206 129.202,146.400 128.894,146.400 128.997 M198.900 129.887 C 199.505 129.978,200.495 129.978,201.100 129.887 C 201.705 129.795,201.210 129.720,200.000 129.720 C 198.790 129.720,198.295 129.795,198.900 129.887 M88.475 130.816 C 87.994 131.264,87.600 131.746,87.600 131.885 C 87.600 132.025,88.050 131.717,88.600 131.200 C 89.538 130.319,89.771 130.000,89.475 130.000 C 89.407 130.000,88.957 130.367,88.475 130.816 M118.500 130.291 C 119.325 130.378,120.675 130.378,121.500 130.291 C 122.325 130.205,121.650 130.134,120.000 130.134 C 118.350 130.134,117.675 130.205,118.500 130.291 M193.729 130.530 C 191.742 131.264,191.666 131.662,193.636 131.021 C 194.606 130.705,195.760 130.367,196.200 130.270 C 196.825 130.132,196.781 130.089,196.000 130.077 C 195.450 130.068,194.428 130.272,193.729 130.530 M203.233 130.147 C 203.325 130.228,204.120 130.404,205.000 130.538 C 206.115 130.707,206.358 130.671,205.800 130.419 C 205.032 130.071,202.890 129.844,203.233 130.147 M151.200 131.379 C 151.200 131.489,151.740 131.859,152.400 132.200 C 153.060 132.541,153.600 132.731,153.600 132.621 C 153.600 132.511,153.060 132.141,152.400 131.800 C 151.740 131.459,151.200 131.269,151.200 131.379 M189.144 132.824 L 188.200 133.647 189.400 132.945 C 190.979 132.020,191.003 132.000,190.511 132.000 C 190.279 132.000,189.664 132.371,189.144 132.824 M219.775 135.200 C 216.539 138.932,216.605 138.803,217.417 139.816 C 218.019 140.569,218.026 140.563,217.595 139.675 C 217.115 138.688,216.921 138.988,221.448 133.700 C 222.249 132.765,222.824 132.000,222.726 132.000 C 222.629 132.000,221.301 133.440,219.775 135.200 M84.981 134.100 L 83.400 135.800 85.100 134.219 C 86.681 132.748,86.984 132.400,86.681 132.400 C 86.616 132.400,85.851 133.165,84.981 134.100 M155.200 133.600 C 155.970 134.022,156.780 134.366,157.000 134.366 C 157.220 134.366,156.770 134.022,156.000 133.600 C 155.230 133.178,154.420 132.834,154.200 132.834 C 153.980 132.834,154.430 133.178,155.200 133.600 M180.033 134.149 C 180.445 134.517,182.800 135.600,182.800 135.421 C 182.800 135.190,180.582 134.000,180.153 134.000 C 179.996 134.000,179.942 134.067,180.033 134.149 M96.581 137.700 L 95.000 139.400 96.700 137.819 C 98.281 136.348,98.584 136.000,98.281 136.000 C 98.216 136.000,97.451 136.765,96.581 137.700 M79.800 138.652 L 77.400 140.885 79.900 138.803 C 82.074 136.992,82.697 136.371,82.300 136.410 C 82.245 136.415,81.120 137.424,79.800 138.652 M92.975 140.900 L 91.800 142.200 93.100 141.025 C 93.815 140.379,94.400 139.794,94.400 139.725 C 94.400 139.416,94.070 139.688,92.975 140.900 M197.576 140.537 C 195.349 141.148,190.807 144.400,192.180 144.400 C 192.348 144.400,192.822 143.972,193.234 143.448 C 194.208 142.209,197.476 140.683,198.667 140.911 C 199.180 141.009,199.600 140.959,199.600 140.799 C 199.600 140.329,203.712 141.202,204.800 141.903 C 206.236 142.827,206.803 143.463,206.481 143.786 C 206.326 143.940,206.470 144.007,206.800 143.933 C 207.168 143.852,207.379 144.069,207.345 144.496 C 207.315 144.878,207.441 145.098,207.626 144.984 C 207.811 144.870,208.233 145.277,208.565 145.888 C 209.339 147.315,209.389 146.726,208.620 145.240 C 206.744 141.610,201.617 139.428,197.576 140.537 M88.981 144.500 L 87.400 146.200 89.100 144.619 C 90.681 143.148,90.984 142.800,90.681 142.800 C 90.616 142.800,89.851 143.565,88.981 144.500 M71.000 146.306 C 70.780 146.468,70.335 146.960,70.012 147.400 C 69.578 147.991,69.709 147.946,70.512 147.230 C 71.491 146.358,71.789 145.988,71.500 146.006 C 71.445 146.009,71.220 146.144,71.000 146.306 M85.375 147.700 L 84.200 149.000 85.500 147.825 C 86.215 147.179,86.800 146.594,86.800 146.525 C 86.800 146.216,86.470 146.488,85.375 147.700 M67.240 149.624 C 66.273 150.498,65.553 151.282,65.640 151.364 C 65.728 151.446,66.610 150.724,67.600 149.760 C 69.843 147.576,69.605 147.486,67.240 149.624 M78.383 153.870 C 77.201 155.110,77.015 155.413,77.833 154.770 C 78.949 153.893,80.636 152.000,80.302 152.000 C 80.227 152.000,79.364 152.841,78.383 153.870 M190.800 153.472 C 190.800 156.970,198.099 160.726,202.442 159.463 C 205.473 158.582,210.065 154.332,209.066 153.333 C 208.960 153.227,208.754 153.516,208.608 153.976 C 208.461 154.438,208.149 154.692,207.909 154.544 C 207.648 154.382,207.592 154.464,207.769 154.750 C 207.934 155.018,207.657 155.657,207.131 156.221 C 202.809 160.851,195.548 160.231,192.037 154.931 C 191.357 153.903,190.800 153.247,190.800 153.472 M60.378 155.900 L 59.000 157.400 60.500 156.022 C 61.896 154.738,62.184 154.400,61.878 154.400 C 61.812 154.400,61.137 155.075,60.378 155.900 M74.400 157.400 C 73.428 158.390,72.723 159.200,72.833 159.200 C 72.943 159.200,73.828 158.390,74.800 157.400 C 75.772 156.410,76.477 155.600,76.367 155.600 C 76.257 155.600,75.372 156.410,74.400 157.400 M56.800 159.000 C 55.828 159.990,55.123 160.800,55.233 160.800 C 55.343 160.800,56.228 159.990,57.200 159.000 C 58.172 158.010,58.877 157.200,58.767 157.200 C 58.657 157.200,57.772 158.010,56.800 159.000 M53.000 162.306 C 52.780 162.468,52.335 162.960,52.012 163.400 C 51.578 163.991,51.709 163.946,52.512 163.230 C 53.491 162.358,53.789 161.988,53.500 162.006 C 53.445 162.009,53.220 162.144,53.000 162.306 M66.800 164.200 C 65.828 165.190,65.123 166.000,65.233 166.000 C 65.343 166.000,66.228 165.190,67.200 164.200 C 68.172 163.210,68.877 162.400,68.767 162.400 C 68.657 162.400,67.772 163.210,66.800 164.200 M213.586 164.700 L 211.400 167.000 213.700 164.814 C 214.965 163.611,216.000 162.576,216.000 162.514 C 216.000 162.217,215.618 162.563,213.586 164.700 M186.600 165.200 C 187.459 166.080,188.252 166.800,188.362 166.800 C 188.472 166.800,187.859 166.080,187.000 165.200 C 186.141 164.320,185.348 163.600,185.238 163.600 C 185.128 163.600,185.741 164.320,186.600 165.200 M49.200 165.660 C 48.430 166.335,48.162 166.705,48.604 166.481 C 49.335 166.111,51.147 164.378,50.762 164.416 C 50.673 164.425,49.970 164.985,49.200 165.660 M209.200 167.800 C 208.210 168.330,207.542 168.772,207.716 168.782 C 208.141 168.806,211.200 167.234,211.200 166.992 C 211.200 166.727,211.217 166.720,209.200 167.800 M189.600 167.396 C 189.600 167.670,192.049 168.884,192.232 168.701 C 192.319 168.614,191.762 168.244,190.995 167.878 C 190.228 167.512,189.600 167.295,189.600 167.396 M44.200 170.254 L 41.400 172.887 44.300 170.402 C 46.830 168.235,47.499 167.568,47.100 167.611 C 47.045 167.617,45.740 168.806,44.200 170.254 M60.581 169.700 L 59.000 171.400 60.700 169.819 C 62.281 168.348,62.584 168.000,62.281 168.000 C 62.216 168.000,61.451 168.765,60.581 169.700 M28.900 169.887 C 29.505 169.978,30.495 169.978,31.100 169.887 C 31.705 169.795,31.210 169.720,30.000 169.720 C 28.790 169.720,28.295 169.795,28.900 169.887 M23.033 170.805 C 21.952 171.228,20.872 171.781,20.633 172.036 C 20.360 172.327,20.570 172.306,21.200 171.978 C 21.750 171.692,23.190 171.139,24.400 170.750 C 25.610 170.361,26.240 170.042,25.800 170.040 C 25.360 170.039,24.115 170.383,23.033 170.805 M198.711 170.293 C 199.651 170.378,201.091 170.377,201.911 170.291 C 202.730 170.205,201.960 170.136,200.200 170.137 C 198.440 170.139,197.770 170.209,198.711 170.293 M56.378 173.500 L 55.000 175.000 56.500 173.622 C 57.325 172.863,58.000 172.188,58.000 172.122 C 58.000 171.816,57.662 172.104,56.378 173.500 M15.853 175.672 L 13.000 178.543 16.000 175.787 C 17.650 174.271,19.075 172.979,19.167 172.915 C 19.258 172.852,19.192 172.800,19.019 172.800 C 18.847 172.800,17.422 174.092,15.853 175.672 M49.040 179.958 C 47.977 181.068,47.956 181.164,48.549 182.258 C 48.890 182.886,49.175 183.253,49.184 183.074 C 49.193 182.894,49.004 182.381,48.764 181.933 C 48.401 181.255,48.514 180.924,49.439 179.959 C 50.050 179.322,50.460 178.800,50.350 178.800 C 50.240 178.800,49.650 179.321,49.040 179.958 M27.528 180.558 C 22.584 181.889,19.344 187.056,20.418 191.900 C 22.093 199.461,31.188 202.402,36.540 197.114 C 37.453 196.212,37.825 195.773,37.368 196.138 C 36.910 196.503,36.386 196.666,36.203 196.501 C 36.021 196.335,36.004 196.429,36.165 196.709 C 36.651 197.552,32.207 199.367,29.732 199.337 C 27.578 199.311,24.519 198.048,24.695 197.257 C 24.748 197.022,24.541 196.924,24.236 197.041 C 23.366 197.375,21.550 194.636,20.960 192.100 C 19.010 183.710,28.084 177.613,35.507 182.325 C 36.270 182.810,36.334 183.004,35.907 183.551 C 35.465 184.116,35.483 184.135,36.047 183.695 C 36.793 183.113,37.069 183.352,38.180 185.537 C 38.553 186.273,38.962 186.771,39.088 186.645 C 40.142 185.591,34.961 181.072,31.960 180.429 C 29.619 179.927,29.903 179.918,27.528 180.558 M10.446 184.039 C 10.201 184.743,10.012 185.608,10.027 185.960 C 10.041 186.312,10.304 185.797,10.609 184.816 C 11.249 182.762,11.115 182.122,10.446 184.039 M49.268 184.000 C 49.288 185.039,49.918 186.746,49.932 185.800 C 49.938 185.360,49.789 184.640,49.600 184.200 C 49.389 183.710,49.261 183.632,49.268 184.000 M39.419 188.835 C 39.535 189.844,39.447 191.149,39.225 191.735 C 38.991 192.350,38.974 192.800,39.185 192.800 C 39.761 192.800,40.067 189.528,39.616 188.200 C 39.254 187.137,39.232 187.210,39.419 188.835 M9.720 190.000 C 9.720 191.210,9.795 191.705,9.887 191.100 C 9.978 190.495,9.978 189.505,9.887 188.900 C 9.795 188.295,9.720 188.790,9.720 190.000 M50.120 190.000 C 50.120 191.210,50.195 191.705,50.287 191.100 C 50.378 190.495,50.378 189.505,50.287 188.900 C 50.195 188.295,50.120 188.790,50.120 190.000 M368.905 189.887 C 369.514 189.979,370.414 189.977,370.905 189.882 C 371.397 189.787,370.900 189.711,369.800 189.714 C 368.700 189.717,368.297 189.795,368.905 189.887 M374.400 190.400 C 375.768 190.838,376.819 190.838,375.800 190.400 C 375.360 190.211,374.640 190.062,374.200 190.068 C 373.557 190.077,373.596 190.143,374.400 190.400 M362.500 190.996 C 361.785 191.307,361.200 191.651,361.200 191.760 C 361.200 191.870,361.785 191.722,362.500 191.432 C 363.215 191.141,364.070 190.805,364.400 190.684 C 364.933 190.488,364.933 190.461,364.400 190.447 C 364.070 190.438,363.215 190.686,362.500 190.996 M357.722 193.829 L 356.600 194.858 357.900 193.954 C 358.615 193.457,359.200 192.993,359.200 192.925 C 359.200 192.609,358.758 192.880,357.722 193.829 M381.000 193.054 C 381.220 193.248,382.029 193.945,382.799 194.603 L 384.197 195.800 383.199 194.663 C 382.649 194.038,381.840 193.341,381.400 193.114 C 380.960 192.888,380.780 192.861,381.000 193.054 M38.526 193.900 C 38.389 194.285,38.201 194.780,38.109 195.000 C 38.016 195.220,38.224 195.051,38.570 194.624 C 39.199 193.848,39.389 193.200,38.987 193.200 C 38.871 193.200,38.663 193.515,38.526 193.900 M10.432 195.513 C 10.394 196.126,11.474 198.800,11.759 198.800 C 11.869 198.800,11.722 198.215,11.432 197.500 C 11.141 196.785,10.805 195.930,10.684 195.600 C 10.541 195.211,10.452 195.180,10.432 195.513 M354.129 197.300 C 353.684 197.795,353.176 198.470,353.001 198.800 C 352.663 199.437,352.755 199.350,354.376 197.500 C 354.906 196.895,355.249 196.400,355.139 196.400 C 355.029 196.400,354.575 196.805,354.129 197.300 M47.882 199.011 C 47.292 200.215,46.894 201.200,46.998 201.200 C 47.267 201.200,49.284 197.151,49.105 196.971 C 49.023 196.889,48.473 197.807,47.882 199.011 M13.124 201.400 C 13.653 202.379,14.921 203.751,17.009 205.600 C 17.878 206.370,17.338 205.650,15.810 204.000 C 14.281 202.350,12.955 200.910,12.861 200.800 C 12.768 200.690,12.886 200.960,13.124 201.400 M388.028 201.000 C 388.028 201.220,388.286 201.850,388.600 202.400 C 388.914 202.950,389.172 203.220,389.172 203.000 C 389.172 202.780,388.914 202.150,388.600 201.600 C 388.286 201.050,388.028 200.780,388.028 201.000 M350.667 203.067 C 350.520 203.213,350.411 203.708,350.425 204.167 C 350.449 204.933,350.482 204.923,350.834 204.042 C 351.226 203.063,351.144 202.589,350.667 203.067 M38.800 208.000 C 37.590 208.639,36.741 209.171,36.913 209.181 C 37.338 209.207,41.200 207.236,41.200 206.993 C 41.200 206.726,41.255 206.703,38.800 208.000 M20.400 207.796 C 20.400 208.070,22.849 209.284,23.032 209.101 C 23.119 209.014,22.562 208.644,21.795 208.278 C 21.028 207.912,20.400 207.695,20.400 207.796 M390.120 210.000 C 390.120 211.210,390.195 211.705,390.287 211.100 C 390.378 210.495,390.378 209.505,390.287 208.900 C 390.195 208.295,390.120 208.790,390.120 210.000 M24.200 209.600 C 24.640 209.789,25.270 209.944,25.600 209.944 C 25.978 209.944,25.904 209.817,25.400 209.600 C 24.960 209.411,24.330 209.256,24.000 209.256 C 23.622 209.256,23.696 209.383,24.200 209.600 M278.900 209.887 C 279.505 209.978,280.495 209.978,281.100 209.887 C 281.705 209.795,281.210 209.720,280.000 209.720 C 278.790 209.720,278.295 209.795,278.900 209.887 M28.900 210.287 C 29.505 210.378,30.495 210.378,31.100 210.287 C 31.705 210.195,31.210 210.120,30.000 210.120 C 28.790 210.120,28.295 210.195,28.900 210.287 M274.200 210.419 C 273.642 210.671,273.885 210.707,275.000 210.538 C 275.880 210.404,276.675 210.228,276.767 210.147 C 277.110 209.844,274.968 210.071,274.200 210.419 M283.233 210.147 C 283.325 210.228,284.120 210.404,285.000 210.538 C 286.115 210.707,286.358 210.671,285.800 210.419 C 285.032 210.071,282.890 209.844,283.233 210.147 M269.700 212.396 C 267.894 213.497,268.063 213.766,269.900 212.714 C 271.748 211.656,271.823 211.600,271.367 211.601 C 271.165 211.602,270.415 211.960,269.700 212.396 M389.429 215.029 C 389.281 215.615,389.238 216.172,389.332 216.266 C 389.427 216.360,389.624 215.958,389.771 215.371 C 389.919 214.785,389.962 214.228,389.868 214.134 C 389.773 214.040,389.576 214.442,389.429 215.029 M296.616 218.700 C 297.418 219.855,298.225 220.800,298.407 220.800 C 298.590 220.800,298.401 220.395,297.988 219.900 C 295.708 217.169,295.310 216.822,296.616 218.700 M388.278 218.205 C 387.912 218.972,387.695 219.600,387.796 219.600 C 388.070 219.600,389.284 217.151,389.101 216.968 C 389.014 216.881,388.644 217.438,388.278 218.205 M353.114 221.400 C 353.341 221.840,354.038 222.649,354.663 223.199 L 355.800 224.197 354.603 222.799 C 352.707 220.582,352.680 220.558,353.114 221.400 M383.988 224.300 L 381.400 227.000 384.100 224.412 C 385.585 222.988,386.800 221.773,386.800 221.712 C 386.800 221.417,386.393 221.792,383.988 224.300 M325.200 225.200 C 324.408 225.454,324.367 225.520,325.000 225.520 C 325.440 225.520,326.250 225.376,326.800 225.200 C 327.592 224.946,327.633 224.880,327.000 224.880 C 326.560 224.880,325.750 225.024,325.200 225.200 M378.000 228.400 C 377.230 228.822,376.744 229.174,376.920 229.183 C 377.344 229.205,379.600 228.032,379.600 227.790 C 379.600 227.528,379.577 227.537,378.000 228.400 M306.464 229.273 C 305.509 229.487,304.808 229.741,304.906 229.839 C 305.112 230.046,309.200 229.215,309.200 228.967 C 309.200 228.739,308.511 228.816,306.464 229.273 M374.600 229.600 C 374.096 229.817,374.022 229.944,374.400 229.944 C 374.730 229.944,375.360 229.789,375.800 229.600 C 376.304 229.383,376.378 229.256,376.000 229.256 C 375.670 229.256,375.040 229.411,374.600 229.600 M118.900 229.887 C 119.505 229.978,120.495 229.978,121.100 229.887 C 121.705 229.795,121.210 229.720,120.000 229.720 C 118.790 229.720,118.295 229.795,118.900 229.887 M113.729 230.530 C 111.742 231.264,111.666 231.662,113.636 231.021 C 114.606 230.705,115.760 230.367,116.200 230.270 C 116.825 230.132,116.781 230.089,116.000 230.077 C 115.450 230.068,114.428 230.272,113.729 230.530 M123.233 230.147 C 123.325 230.228,124.120 230.404,125.000 230.538 C 126.115 230.707,126.358 230.671,125.800 230.419 C 125.032 230.071,122.890 229.844,123.233 230.147 M368.900 230.287 C 369.505 230.378,370.495 230.378,371.100 230.287 C 371.705 230.195,371.210 230.120,370.000 230.120 C 368.790 230.120,368.295 230.195,368.900 230.287 M103.365 238.211 C 102.773 238.987,102.359 239.687,102.444 239.767 C 102.530 239.846,103.093 239.212,103.696 238.356 C 105.065 236.414,104.818 236.306,103.365 238.211 M136.255 238.200 C 136.867 239.080,137.420 239.875,137.484 239.967 C 137.548 240.058,137.600 239.962,137.600 239.752 C 137.600 239.542,137.047 238.747,136.371 237.985 L 135.142 236.600 136.255 238.200 M258.785 239.229 L 257.400 240.458 258.900 239.381 C 260.226 238.430,260.657 238.000,260.285 238.000 C 260.222 238.000,259.547 238.553,258.785 239.229 M255.600 241.649 C 254.206 242.871,254.205 242.872,255.488 242.019 C 256.196 241.548,256.882 240.991,257.012 240.781 C 257.397 240.157,257.077 240.354,255.600 241.649 M292.778 245.500 L 291.400 247.000 292.900 245.622 C 294.296 244.338,294.584 244.000,294.278 244.000 C 294.212 244.000,293.537 244.675,292.778 245.500 M248.967 246.629 L 247.400 248.058 249.100 246.762 C 250.653 245.578,251.032 245.200,250.667 245.200 C 250.593 245.200,249.828 245.843,248.967 246.629 M289.900 247.429 C 288.405 248.240,288.496 248.578,290.000 247.800 C 290.660 247.459,291.200 247.094,291.200 246.990 C 291.200 246.732,291.157 246.747,289.900 247.429 M269.600 247.396 C 269.600 247.670,272.049 248.884,272.232 248.701 C 272.319 248.614,271.762 248.244,270.995 247.878 C 270.228 247.512,269.600 247.295,269.600 247.396 M262.600 249.460 C 261.395 250.536,261.305 250.685,262.236 250.063 C 263.341 249.324,264.732 247.976,264.349 248.015 C 264.267 248.023,263.480 248.673,262.600 249.460 M140.114 250.600 C 140.117 251.700,140.195 252.103,140.287 251.495 C 140.379 250.886,140.377 249.986,140.282 249.495 C 140.187 249.003,140.111 249.500,140.114 250.600 M99.693 250.400 C 99.693 251.170,99.775 251.485,99.876 251.100 C 99.976 250.715,99.976 250.085,99.876 249.700 C 99.775 249.315,99.693 249.630,99.693 250.400 M242.785 251.229 L 241.400 252.458 242.900 251.381 C 244.226 250.430,244.657 250.000,244.285 250.000 C 244.222 250.000,243.547 250.553,242.785 251.229 M278.500 250.291 C 279.325 250.378,280.675 250.378,281.500 250.291 C 282.325 250.205,281.650 250.134,280.000 250.134 C 278.350 250.134,277.675 250.205,278.500 250.291 M141.200 254.820 C 142.587 255.761,143.378 256.035,142.400 255.236 C 141.850 254.786,141.220 254.417,141.000 254.415 C 140.780 254.413,140.870 254.596,141.200 254.820 M156.000 262.179 C 156.000 262.289,156.540 262.659,157.200 263.000 C 157.860 263.341,158.400 263.531,158.400 263.421 C 158.400 263.311,157.860 262.941,157.200 262.600 C 156.540 262.259,156.000 262.069,156.000 262.179 M96.378 263.900 L 95.000 265.400 96.500 264.022 C 97.896 262.738,98.184 262.400,97.878 262.400 C 97.812 262.400,97.137 263.075,96.378 263.900 M132.975 265.300 L 131.800 266.600 133.100 265.425 C 134.312 264.330,134.584 264.000,134.275 264.000 C 134.206 264.000,133.621 264.585,132.975 265.300 M92.800 267.000 C 91.828 267.990,91.123 268.800,91.233 268.800 C 91.343 268.800,92.228 267.990,93.200 267.000 C 94.172 266.010,94.877 265.200,94.767 265.200 C 94.657 265.200,93.772 266.010,92.800 267.000 M164.400 266.420 C 165.787 267.361,166.578 267.635,165.600 266.836 C 165.050 266.386,164.420 266.017,164.200 266.015 C 163.980 266.013,164.070 266.196,164.400 266.420 M198.900 269.887 C 199.505 269.978,200.495 269.978,201.100 269.887 C 201.705 269.795,201.210 269.720,200.000 269.720 C 198.790 269.720,198.295 269.795,198.900 269.887 M88.475 270.816 C 87.994 271.264,87.600 271.746,87.600 271.885 C 87.600 272.025,88.050 271.717,88.600 271.200 C 89.538 270.319,89.771 270.000,89.475 270.000 C 89.407 270.000,88.957 270.367,88.475 270.816 M118.711 270.293 C 119.651 270.378,121.091 270.377,121.911 270.291 C 122.730 270.205,121.960 270.136,120.200 270.137 C 118.440 270.139,117.770 270.209,118.711 270.293 M193.729 270.530 C 191.742 271.264,191.666 271.662,193.636 271.021 C 194.606 270.705,195.760 270.367,196.200 270.270 C 196.825 270.132,196.781 270.089,196.000 270.077 C 195.450 270.068,194.428 270.272,193.729 270.530 M203.233 270.147 C 203.325 270.228,204.120 270.404,205.000 270.538 C 206.115 270.707,206.358 270.671,205.800 270.419 C 205.032 270.071,202.890 269.844,203.233 270.147 M102.981 272.100 L 101.400 273.800 103.100 272.219 C 104.681 270.748,104.984 270.400,104.681 270.400 C 104.616 270.400,103.851 271.165,102.981 272.100 M84.800 274.037 C 83.810 274.924,83.360 275.474,83.800 275.259 C 84.542 274.897,87.166 272.385,86.775 272.412 C 86.679 272.419,85.790 273.150,84.800 274.037 M178.400 273.387 C 178.400 273.497,179.300 274.043,180.400 274.600 C 181.500 275.157,182.400 275.523,182.400 275.413 C 182.400 275.303,181.500 274.757,180.400 274.200 C 179.300 273.643,178.400 273.277,178.400 273.387 M96.581 277.700 L 95.000 279.400 96.700 277.819 C 98.281 276.348,98.584 276.000,98.281 276.000 C 98.216 276.000,97.451 276.765,96.581 277.700 M79.800 278.652 L 77.400 280.885 79.900 278.803 C 82.074 276.992,82.697 276.371,82.300 276.410 C 82.245 276.415,81.120 277.424,79.800 278.652 M92.581 281.300 L 91.000 283.000 92.700 281.419 C 94.281 279.948,94.584 279.600,94.281 279.600 C 94.216 279.600,93.451 280.365,92.581 281.300 M220.400 281.161 C 219.410 282.018,218.690 282.782,218.800 282.859 C 218.910 282.937,219.810 282.235,220.800 281.300 C 223.054 279.171,222.800 279.083,220.400 281.161 M170.400 280.997 C 170.400 281.268,173.649 282.884,173.830 282.703 C 173.914 282.619,173.176 282.159,172.191 281.681 C 171.206 281.202,170.400 280.894,170.400 280.997 M75.068 282.646 C 74.225 283.429,73.607 284.140,73.694 284.227 C 73.781 284.314,74.552 283.669,75.407 282.793 C 77.334 280.819,77.129 280.730,75.068 282.646 M88.778 284.700 L 87.400 286.200 88.900 284.822 C 90.296 283.538,90.584 283.200,90.278 283.200 C 90.212 283.200,89.537 283.875,88.778 284.700 M179.200 285.668 C 180.202 286.645,180.710 286.825,180.218 286.029 C 180.073 285.795,179.560 285.399,179.078 285.149 C 178.283 284.736,178.294 284.785,179.200 285.668 M70.475 286.816 C 69.994 287.264,69.600 287.746,69.600 287.885 C 69.600 288.025,70.050 287.717,70.600 287.200 C 71.538 286.319,71.771 286.000,71.475 286.000 C 71.407 286.000,70.957 286.367,70.475 286.816 M83.200 289.647 L 80.200 292.477 83.300 289.790 C 86.028 287.425,86.679 286.777,86.300 286.808 C 86.245 286.813,84.850 288.090,83.200 289.647 M67.375 289.700 L 66.200 291.000 67.500 289.825 C 68.712 288.730,68.984 288.400,68.675 288.400 C 68.606 288.400,68.021 288.985,67.375 289.700 M64.000 292.600 C 63.028 293.590,62.323 294.400,62.433 294.400 C 62.543 294.400,63.428 293.590,64.400 292.600 C 65.372 291.610,66.077 290.800,65.967 290.800 C 65.857 290.800,64.972 291.610,64.000 292.600 M78.181 294.100 L 76.600 295.800 78.300 294.219 C 79.881 292.748,80.184 292.400,79.881 292.400 C 79.816 292.400,79.051 293.165,78.181 294.100 M60.378 295.900 L 59.000 297.400 60.500 296.022 C 61.896 294.738,62.184 294.400,61.878 294.400 C 61.812 294.400,61.137 295.075,60.378 295.900 M74.400 297.400 C 73.428 298.390,72.723 299.200,72.833 299.200 C 72.943 299.200,73.828 298.390,74.800 297.400 C 75.772 296.410,76.477 295.600,76.367 295.600 C 76.257 295.600,75.372 296.410,74.400 297.400 M56.981 298.900 L 55.400 300.600 57.100 299.019 C 58.681 297.548,58.984 297.200,58.681 297.200 C 58.616 297.200,57.851 297.965,56.981 298.900 M182.360 300.200 C 183.034 301.505,183.588 302.228,183.585 301.800 C 183.583 301.580,183.214 300.950,182.764 300.400 C 182.221 299.736,182.085 299.669,182.360 300.200 M217.150 300.500 C 216.887 300.995,215.486 302.655,214.036 304.189 C 212.586 305.722,211.745 306.712,212.167 306.389 C 214.310 304.745,218.599 299.600,217.827 299.600 C 217.718 299.600,217.413 300.005,217.150 300.500 M52.981 302.500 L 51.400 304.200 53.100 302.619 C 54.681 301.148,54.984 300.800,54.681 300.800 C 54.616 300.800,53.851 301.565,52.981 302.500 M65.800 305.065 C 63.050 307.652,63.043 307.663,65.443 305.660 C 67.677 303.794,69.122 302.376,68.749 302.416 C 68.667 302.424,67.340 303.617,65.800 305.065 M186.000 304.600 C 187.195 305.810,188.263 306.800,188.373 306.800 C 188.483 306.800,187.595 305.810,186.400 304.600 C 185.205 303.390,184.137 302.400,184.027 302.400 C 183.917 302.400,184.805 303.390,186.000 304.600 M49.294 305.612 C 48.575 306.265,48.137 306.800,48.319 306.800 C 48.501 306.800,49.168 306.260,49.800 305.600 C 51.270 304.065,50.986 304.072,49.294 305.612 M209.400 307.686 C 208.520 308.153,206.810 308.872,205.600 309.282 C 204.071 309.800,203.827 309.960,204.800 309.804 C 206.238 309.575,211.200 307.417,211.200 307.021 C 211.200 306.725,211.225 306.716,209.400 307.686 M45.978 308.700 L 44.600 310.200 46.100 308.822 C 47.496 307.538,47.784 307.200,47.478 307.200 C 47.412 307.200,46.737 307.875,45.978 308.700 M190.559 307.934 C 190.874 308.443,194.973 310.008,195.915 309.978 C 196.292 309.967,195.610 309.639,194.400 309.250 C 193.190 308.861,191.773 308.312,191.252 308.031 C 190.730 307.750,190.419 307.706,190.559 307.934 M28.500 309.891 C 29.325 309.978,30.675 309.978,31.500 309.891 C 32.325 309.805,31.650 309.734,30.000 309.734 C 28.350 309.734,27.675 309.805,28.500 309.891 M198.900 310.287 C 199.505 310.378,200.495 310.378,201.100 310.287 C 201.705 310.195,201.210 310.120,200.000 310.120 C 198.790 310.120,198.295 310.195,198.900 310.287 M56.581 313.300 L 55.000 315.000 56.700 313.419 C 58.281 311.948,58.584 311.600,58.281 311.600 C 58.216 311.600,57.451 312.365,56.581 313.300 M16.260 315.268 L 13.800 317.735 16.400 315.388 C 17.830 314.097,19.075 312.987,19.167 312.920 C 19.258 312.854,19.195 312.800,19.027 312.800 C 18.858 312.800,17.613 313.910,16.260 315.268 M49.646 319.353 C 47.951 321.080,47.935 321.123,48.547 322.253 C 48.888 322.884,49.175 323.253,49.184 323.074 C 49.193 322.894,49.003 322.379,48.762 321.928 C 48.384 321.222,48.561 320.866,50.045 319.354 C 50.992 318.389,51.677 317.600,51.567 317.600 C 51.457 317.600,50.592 318.389,49.646 319.353 M10.446 324.039 C 10.201 324.743,10.012 325.608,10.027 325.960 C 10.041 326.312,10.304 325.797,10.609 324.816 C 11.249 322.762,11.115 322.122,10.446 324.039 M49.256 324.000 C 49.256 324.330,49.411 324.960,49.600 325.400 C 49.817 325.904,49.944 325.978,49.944 325.600 C 49.944 325.270,49.789 324.640,49.600 324.200 C 49.383 323.696,49.256 323.622,49.256 324.000 M9.728 329.600 C 9.728 331.030,9.801 331.615,9.889 330.900 C 9.978 330.185,9.978 329.015,9.889 328.300 C 9.801 327.585,9.728 328.170,9.728 329.600 M50.128 329.600 C 50.128 331.030,50.201 331.615,50.289 330.900 C 50.378 330.185,50.378 329.015,50.289 328.300 C 50.201 327.585,50.128 328.170,50.128 329.600 M46.196 341.862 C 45.813 342.446,44.842 343.571,44.038 344.362 C 43.233 345.153,43.031 345.447,43.588 345.015 C 44.806 344.070,46.293 342.459,46.834 341.500 C 47.449 340.407,46.972 340.679,46.196 341.862 M13.200 341.725 C 13.200 341.794,13.785 342.379,14.500 343.025 L 15.800 344.200 14.625 342.900 C 13.530 341.688,13.200 341.416,13.200 341.725 M20.559 347.934 C 20.874 348.443,24.973 350.008,25.915 349.978 C 26.292 349.967,25.610 349.639,24.400 349.250 C 23.190 348.861,21.773 348.312,21.252 348.031 C 20.730 347.750,20.419 347.706,20.559 347.934 M37.600 348.600 C 37.050 348.914,36.780 349.172,37.000 349.172 C 37.220 349.172,37.850 348.914,38.400 348.600 C 38.950 348.286,39.220 348.028,39.000 348.028 C 38.780 348.028,38.150 348.286,37.600 348.600 M28.900 350.287 C 29.505 350.378,30.495 350.378,31.100 350.287 C 31.705 350.195,31.210 350.120,30.000 350.120 C 28.790 350.120,28.295 350.195,28.900 350.287 " stroke="none" fill="#ffffff" fill-rule="evenodd"></path></g></svg>