<svg id="svg" version="1.1" xmlns="http://www.w3.org/2000/svg" xmlns:xlink="http://www.w3.org/1999/xlink" width="400" height="400" viewBox="0, 0, 400,400"><g id="svgg"><path id="path0" d="M185.400 20.025 C 128.271 25.199,77.853 55.608,47.827 103.000 C 43.184 110.328,43.123 109.428,48.467 112.506 C 50.960 113.943,56.870 117.353,61.600 120.086 C 66.330 122.818,74.430 127.494,79.600 130.477 C 84.770 133.459,91.250 137.204,94.000 138.798 C 96.750 140.392,102.600 143.767,107.000 146.297 C 114.756 150.757,126.588 157.590,149.800 171.013 C 162.830 178.549,165.375 180.017,179.600 188.212 C 185.430 191.570,192.412 195.597,195.116 197.160 L 200.032 200.001 206.516 196.255 C 210.082 194.194,216.060 190.747,219.800 188.594 C 223.540 186.442,229.390 183.063,232.800 181.087 C 236.210 179.110,242.510 175.469,246.800 172.996 C 274.809 156.849,292.584 146.591,297.400 143.798 C 299.600 142.522,305.360 139.197,310.200 136.411 C 315.040 133.624,321.340 129.988,324.200 128.330 C 327.060 126.673,333.720 122.835,339.000 119.801 C 354.139 111.104,356.000 109.980,356.000 109.538 C 356.000 108.541,349.435 98.425,343.971 91.002 C 315.569 52.413,269.988 26.514,220.000 20.562 C 213.660 19.807,191.591 19.465,185.400 20.025 " stroke="none" fill="#544cbb" fill-rule="evenodd"></path><path id="path1" d="M353.800 111.198 C 352.480 112.009,346.450 115.517,340.400 118.993 C 334.350 122.470,327.060 126.671,324.200 128.329 C 321.340 129.987,315.040 133.624,310.200 136.411 C 305.360 139.197,299.600 142.522,297.400 143.798 C 295.200 145.074,289.890 148.143,285.600 150.619 C 272.623 158.106,255.059 168.235,246.800 172.993 C 242.510 175.465,235.040 179.778,230.200 182.578 C 225.360 185.378,218.250 189.484,214.400 191.702 C 210.550 193.921,205.735 196.706,203.700 197.891 L 200.000 200.047 200.000 290.223 L 200.000 380.400 205.700 380.396 C 257.347 380.358,311.140 352.582,344.085 308.939 C 386.274 253.050,392.383 175.970,359.440 115.196 C 356.112 109.058,356.656 109.443,353.800 111.198 " stroke="none" fill="#d33cbb" fill-rule="evenodd"></path><path id="path2" d="M41.899 113.076 C 12.066 164.901,12.147 233.461,42.107 287.400 C 73.182 343.348,134.490 380.373,196.100 380.398 L 200.000 380.400 200.000 290.209 L 200.000 200.018 199.100 199.464 C 198.605 199.159,193.880 196.425,188.600 193.388 C 176.192 186.252,162.440 178.314,126.800 157.717 C 120.310 153.966,111.400 148.827,107.000 146.297 C 102.600 143.767,96.750 140.393,94.000 138.799 C 91.250 137.206,85.400 133.827,81.000 131.292 C 73.146 126.767,69.081 124.417,52.938 115.071 C 48.503 112.504,44.610 110.302,44.286 110.178 C 43.871 110.018,43.168 110.872,41.899 113.076 " stroke="none" fill="#1cec93" fill-rule="evenodd"></path><path id="path3" d="M0.000 200.000 L 0.000 400.000 200.000 400.000 L 400.000 400.000 400.000 200.000 L 400.000 0.000 200.000 0.000 L 0.000 0.000 0.000 200.000 M218.000 20.186 C 237.430 22.091,257.680 27.572,275.400 35.724 C 280.299 37.978,280.937 38.307,288.600 42.540 C 365.782 85.178,400.335 180.017,369.064 263.400 C 337.612 347.269,249.489 395.537,162.071 376.779 C 78.630 358.875,19.200 285.150,19.200 199.546 C 19.200 164.260,28.472 132.910,47.914 102.456 C 63.190 78.527,85.868 56.827,109.400 43.619 C 123.661 35.615,134.056 31.195,150.200 26.269 C 169.556 20.364,195.793 18.010,218.000 20.186 " stroke="none" fill="#ffffff" fill-rule="evenodd"></path><path id="path4" d="M196.480 19.498 C 198.394 19.571,201.634 19.571,203.680 19.498 C 205.726 19.426,204.160 19.366,200.200 19.365 C 196.240 19.365,194.566 19.424,196.480 19.498 M187.300 19.876 C 187.685 19.976,188.315 19.976,188.700 19.876 C 189.085 19.775,188.770 19.693,188.000 19.693 C 187.230 19.693,186.915 19.775,187.300 19.876 M211.300 19.876 C 211.685 19.976,212.315 19.976,212.700 19.876 C 213.085 19.775,212.770 19.693,212.000 19.693 C 211.230 19.693,210.915 19.775,211.300 19.876 M246.600 25.600 C 247.040 25.789,247.670 25.944,248.000 25.944 C 248.378 25.944,248.304 25.817,247.800 25.600 C 247.360 25.411,246.730 25.256,246.400 25.256 C 246.022 25.256,246.096 25.383,246.600 25.600 M270.400 33.800 C 270.950 34.114,271.580 34.372,271.800 34.372 C 272.020 34.372,271.750 34.114,271.200 33.800 C 270.650 33.486,270.020 33.228,269.800 33.228 C 269.580 33.228,269.850 33.486,270.400 33.800 M128.000 34.200 C 127.450 34.514,127.180 34.772,127.400 34.772 C 127.620 34.772,128.250 34.514,128.800 34.200 C 129.350 33.886,129.620 33.628,129.400 33.628 C 129.180 33.628,128.550 33.886,128.000 34.200 M274.000 35.400 C 274.550 35.714,275.180 35.972,275.400 35.972 C 275.620 35.972,275.350 35.714,274.800 35.400 C 274.250 35.086,273.620 34.828,273.400 34.828 C 273.180 34.828,273.450 35.086,274.000 35.400 M120.300 37.627 C 119.475 38.063,118.800 38.508,118.800 38.618 C 118.800 38.796,121.959 37.319,122.367 36.951 C 122.827 36.534,121.625 36.928,120.300 37.627 M278.433 37.349 C 278.845 37.717,281.200 38.800,281.200 38.621 C 281.200 38.390,278.982 37.200,278.553 37.200 C 278.396 37.200,278.342 37.267,278.433 37.349 M106.500 45.246 C 105.137 46.119,104.695 46.706,105.900 46.043 C 106.818 45.539,108.256 44.427,108.000 44.419 C 107.890 44.416,107.215 44.788,106.500 45.246 M292.600 45.007 C 293.040 45.366,293.760 45.835,294.200 46.051 L 295.000 46.444 294.200 45.793 C 293.760 45.434,293.040 44.965,292.600 44.749 L 291.800 44.356 292.600 45.007 M304.400 52.511 C 304.400 52.587,304.985 53.078,305.700 53.601 C 306.504 54.190,306.784 54.287,306.433 53.855 C 305.900 53.199,304.400 52.207,304.400 52.511 M78.181 66.500 L 76.600 68.200 78.300 66.619 C 79.235 65.749,80.000 64.984,80.000 64.919 C 80.000 64.616,79.652 64.919,78.181 66.500 M322.200 66.800 C 323.283 67.900,324.260 68.800,324.370 68.800 C 324.480 68.800,323.683 67.900,322.600 66.800 C 321.517 65.700,320.540 64.800,320.430 64.800 C 320.320 64.800,321.117 65.700,322.200 66.800 M325.030 69.300 C 325.142 69.575,325.721 70.144,326.317 70.565 C 327.398 71.329,327.398 71.328,326.225 70.065 C 324.942 68.684,324.719 68.541,325.030 69.300 M333.200 77.800 C 333.946 78.570,334.647 79.200,334.757 79.200 C 334.867 79.200,334.346 78.570,333.600 77.800 C 332.854 77.030,332.153 76.400,332.043 76.400 C 331.933 76.400,332.454 77.030,333.200 77.800 M66.378 78.300 L 65.000 79.800 66.500 78.422 C 67.896 77.138,68.184 76.800,67.878 76.800 C 67.812 76.800,67.137 77.475,66.378 78.300 M337.200 82.525 C 337.200 82.594,337.785 83.179,338.500 83.825 L 339.800 85.000 338.625 83.700 C 337.530 82.488,337.200 82.216,337.200 82.525 M353.949 105.800 C 354.165 106.240,354.634 106.960,354.993 107.400 L 355.644 108.200 355.251 107.400 C 355.035 106.960,354.566 106.240,354.207 105.800 L 353.556 105.000 353.949 105.800 M43.497 109.473 C 41.770 112.560,40.331 115.341,40.570 115.129 C 41.114 114.646,44.022 109.489,43.848 109.315 C 43.756 109.222,43.598 109.294,43.497 109.473 M37.779 120.042 C 36.773 122.045,36.014 123.748,36.093 123.826 C 36.171 123.904,37.081 122.266,38.115 120.184 C 39.149 118.103,39.908 116.400,39.801 116.400 C 39.695 116.400,38.785 118.039,37.779 120.042 M34.619 126.705 C 33.427 129.163,31.584 133.717,31.723 133.857 C 31.795 133.928,32.692 132.065,33.716 129.716 C 35.518 125.586,36.097 123.656,34.619 126.705 M30.025 137.825 C 29.556 139.079,29.242 140.175,29.327 140.260 C 29.412 140.345,29.861 139.384,30.325 138.125 C 30.789 136.866,31.103 135.770,31.023 135.690 C 30.943 135.610,30.494 136.571,30.025 137.825 M27.644 144.455 C 27.180 145.830,26.813 147.145,26.830 147.378 C 26.846 147.610,27.295 146.554,27.827 145.030 C 28.359 143.507,28.726 142.192,28.641 142.108 C 28.557 142.024,28.109 143.080,27.644 144.455 M26.311 148.610 C 25.138 152.660,24.006 157.112,24.026 157.600 C 24.039 157.930,24.666 156.040,25.420 153.400 C 26.173 150.760,26.734 148.425,26.665 148.210 C 26.596 147.996,26.437 148.176,26.311 148.610 M22.218 165.818 C 22.065 166.839,22.022 167.755,22.122 167.855 C 22.222 167.955,22.429 167.202,22.582 166.182 C 22.735 165.161,22.778 164.245,22.678 164.145 C 22.578 164.045,22.371 164.798,22.218 165.818 M21.463 169.681 C 20.865 173.056,20.352 178.017,20.513 178.863 C 20.645 179.560,20.705 179.454,20.746 178.451 C 20.775 177.710,21.080 175.215,21.423 172.908 C 21.989 169.097,22.020 166.532,21.463 169.681 M20.109 182.000 C 20.109 182.990,20.187 183.395,20.282 182.900 C 20.378 182.405,20.378 181.595,20.282 181.100 C 20.187 180.605,20.109 181.010,20.109 182.000 M19.720 187.200 C 19.720 188.410,19.795 188.905,19.887 188.300 C 19.978 187.695,19.978 186.705,19.887 186.100 C 19.795 185.495,19.720 185.990,19.720 187.200 M19.371 199.600 C 19.371 204.550,19.428 206.575,19.499 204.100 C 19.569 201.625,19.569 197.575,19.499 195.100 C 19.428 192.625,19.371 194.650,19.371 199.600 M19.714 211.800 C 19.717 212.900,19.795 213.303,19.887 212.695 C 19.979 212.086,19.977 211.186,19.882 210.695 C 19.787 210.203,19.711 210.700,19.714 211.800 M20.109 217.200 C 20.109 218.190,20.187 218.595,20.282 218.100 C 20.378 217.605,20.378 216.795,20.282 216.300 C 20.187 215.805,20.109 216.210,20.109 217.200 M20.456 220.800 C 20.377 222.766,22.365 234.969,22.708 234.625 C 22.798 234.535,22.497 232.243,22.038 229.531 C 21.580 226.819,21.045 223.520,20.850 222.200 C 20.656 220.880,20.478 220.250,20.456 220.800 M24.564 243.800 C 25.296 246.979,26.514 251.219,26.655 251.078 C 26.842 250.891,24.812 243.091,24.501 242.800 C 24.384 242.690,24.412 243.140,24.564 243.800 M26.861 252.000 C 26.861 252.330,27.103 253.230,27.400 254.000 C 27.697 254.770,27.939 255.130,27.939 254.800 C 27.939 254.470,27.697 253.570,27.400 252.800 C 27.103 252.030,26.861 251.670,26.861 252.000 M28.400 256.912 C 28.400 257.435,30.899 264.034,31.043 263.890 C 31.126 263.807,30.642 262.223,29.966 260.371 C 28.823 257.241,28.400 256.306,28.400 256.912 M32.000 266.878 C 32.000 267.598,35.930 276.201,35.982 275.595 C 36.005 275.328,32.434 267.101,32.188 266.855 C 32.085 266.751,32.000 266.762,32.000 266.878 M36.000 276.141 C 36.000 276.576,39.986 284.400,40.207 284.400 C 40.386 284.400,36.530 276.440,36.154 276.033 C 36.069 275.942,36.000 275.990,36.000 276.141 M41.773 287.400 C 42.598 288.940,43.461 290.380,43.690 290.600 C 44.214 291.102,41.221 285.545,40.674 285.000 C 40.454 284.780,40.948 285.860,41.773 287.400 M45.202 293.400 C 45.663 294.280,46.406 295.450,46.853 296.000 C 47.525 296.826,47.504 296.715,46.734 295.366 C 45.328 292.906,44.152 291.397,45.202 293.400 M48.209 298.300 C 50.070 301.220,54.964 308.037,55.525 308.489 C 55.873 308.770,55.170 307.650,53.963 306.000 C 52.757 304.350,50.907 301.695,49.854 300.100 C 48.800 298.505,47.842 297.200,47.723 297.200 C 47.605 297.200,47.823 297.695,48.209 298.300 M56.870 310.500 C 60.758 315.967,70.888 326.936,77.857 333.225 C 85.207 339.857,90.800 344.458,90.800 343.871 C 90.800 343.748,89.713 342.810,88.384 341.787 C 79.057 334.611,66.150 321.725,58.448 311.900 C 56.264 309.114,55.236 308.202,56.870 310.500 M91.361 344.337 C 91.622 344.759,97.947 349.365,100.500 350.991 C 102.556 352.301,101.611 351.340,99.300 349.772 C 98.035 348.913,95.667 347.235,94.039 346.044 C 92.410 344.853,91.205 344.084,91.361 344.337 M102.000 351.697 C 102.000 351.905,105.662 354.384,107.100 355.149 C 108.806 356.057,107.995 355.266,105.900 353.977 C 104.745 353.267,103.395 352.421,102.900 352.097 C 102.405 351.773,102.000 351.593,102.000 351.697 M108.600 355.911 C 108.820 356.146,110.440 357.100,112.200 358.031 C 113.960 358.962,115.220 359.542,115.000 359.320 C 114.444 358.759,108.107 355.384,108.600 355.911 M115.600 359.799 C 115.600 360.064,123.648 364.085,123.826 363.908 C 123.903 363.830,122.085 362.830,119.784 361.685 C 117.483 360.541,115.600 359.692,115.600 359.799 M125.800 364.846 C 127.789 365.939,132.878 368.056,133.065 367.868 C 133.189 367.744,125.670 364.374,124.621 364.083 C 124.389 364.019,124.920 364.362,125.800 364.846 M134.800 368.519 C 134.800 368.792,141.665 371.269,141.865 371.068 C 141.951 370.982,140.658 370.427,138.990 369.835 C 137.323 369.243,135.698 368.659,135.379 368.537 C 135.061 368.414,134.800 368.407,134.800 368.519 M146.033 372.565 C 146.320 372.849,156.143 375.601,156.787 375.578 C 157.124 375.566,154.970 374.853,152.000 373.993 C 146.766 372.478,145.684 372.219,146.033 372.565 M164.200 377.193 C 166.170 377.840,175.168 379.264,176.119 379.080 C 176.925 378.923,176.915 378.904,176.000 378.852 C 175.450 378.821,172.930 378.444,170.400 378.014 C 162.936 376.744,162.764 376.722,164.200 377.193 M177.905 379.483 C 178.402 379.579,179.122 379.575,179.505 379.475 C 179.887 379.375,179.480 379.296,178.600 379.301 C 177.720 379.305,177.407 379.387,177.905 379.483 M181.905 379.883 C 182.402 379.979,183.122 379.975,183.505 379.875 C 183.887 379.775,183.480 379.696,182.600 379.701 C 181.720 379.705,181.407 379.787,181.905 379.883 M186.900 380.287 C 187.505 380.378,188.495 380.378,189.100 380.287 C 189.705 380.195,189.210 380.120,188.000 380.120 C 186.790 380.120,186.295 380.195,186.900 380.287 M193.300 380.696 C 194.565 380.775,196.635 380.775,197.900 380.696 C 199.165 380.616,198.130 380.551,195.600 380.551 C 193.070 380.551,192.035 380.616,193.300 380.696 " stroke="none" fill="#8de2c7" fill-rule="evenodd"></path></g></svg>